<svg width="954" height="83" viewBox="0 0 954 83" fill="none" xmlns="http://www.w3.org/2000/svg">
<path d="M45.3984 3.23438C45.6693 3.50521 45.737 4.85938 45.6016 7.29688C45.5339 9.66667 45.2969 12.7135 44.8906 16.4375C44.4844 20.1615 43.9766 24.3932 43.3672 29.1328C42.8255 33.8724 42.2161 38.6797 41.5391 43.5547C40.862 48.4297 40.151 53.2031 39.4062 57.875C38.7292 62.4792 38.0521 66.6094 37.375 70.2656C36.7656 73.8542 36.1901 76.7656 35.6484 79C35.1745 81.1667 34.8021 82.25 34.5312 82.25C34.0573 82.25 33.5156 81.9792 32.9062 81.4375C32.2969 80.8958 31.6875 80.2188 31.0781 79.4062C30.5365 78.6615 30.0286 77.9167 29.5547 77.1719C29.1484 76.3594 28.9115 75.7161 28.8438 75.2422C28.6406 74.362 28.2344 72.6693 27.625 70.1641C27.0833 67.6589 26.5417 64.5443 26 60.8203C25.6615 58.3828 25.3229 55.8099 24.9844 53.1016C24.6458 50.7995 24.2734 48.2943 23.8672 45.5859C23.5286 42.8099 23.1901 40.0339 22.8516 37.2578C22.5807 39.0182 22.2422 41.1172 21.8359 43.5547C21.4297 45.9922 21.0234 48.3281 20.6172 50.5625C20.1432 53.2031 19.6354 55.8776 19.0938 58.5859C18.6198 61.4297 18.112 64.2396 17.5703 67.0156C17.0286 69.724 16.487 72.1953 15.9453 74.4297C15.4036 76.5964 14.8958 78.3568 14.4219 79.7109C14.0156 81.0651 13.6771 81.776 13.4062 81.8438C12.9323 81.9792 12.3568 81.8099 11.6797 81.3359C11.0026 80.9297 10.3255 80.3542 9.64844 79.6094C8.97135 78.8646 8.36198 78.0859 7.82031 77.2734C7.34635 76.3932 7.04167 75.6484 6.90625 75.0391C5.95833 68.4036 5.14583 62.4453 4.46875 57.1641C3.85938 51.8828 3.31771 47.2109 2.84375 43.1484C2.36979 39.0182 1.9974 35.4635 1.72656 32.4844C1.45573 29.5052 1.21875 26.9323 1.01562 24.7656C0.609375 19.7552 0.440104 16.2682 0.507812 14.3047C0.710938 12.8828 1.2526 11.4609 2.13281 10.0391C3.01302 8.54948 3.99479 7.22917 5.07812 6.07812C6.16146 4.92708 7.17708 4.04688 8.125 3.4375C9.14062 2.76042 9.81771 2.52344 10.1562 2.72656C10.3594 2.86198 10.5625 3.77604 10.7656 5.46875C10.9688 7.09375 11.138 9.26042 11.2734 11.9688C11.4089 14.6094 11.5443 17.6562 11.6797 21.1094C11.8151 24.5625 11.9167 28.1849 11.9844 31.9766C12.1198 35.7005 12.2214 39.4583 12.2891 43.25C12.4245 47.0417 12.5599 50.5964 12.6953 53.9141C12.9661 52.2214 13.237 50.2917 13.5078 48.125C13.8464 45.9583 14.1849 43.6901 14.5234 41.3203C14.9297 38.9505 15.3021 36.6146 15.6406 34.3125C15.9792 31.9427 16.2839 29.776 16.5547 27.8125C16.8932 25.849 17.1979 24.1562 17.4688 22.7344C17.8073 21.3125 18.0781 20.3307 18.2812 19.7891C18.9583 18.2318 19.737 16.8776 20.6172 15.7266C21.5651 14.5755 22.4453 13.6276 23.2578 12.8828C24.138 12.138 24.9167 11.5964 25.5938 11.2578C26.3385 10.8516 26.8464 10.6823 27.1172 10.75C27.1849 10.75 27.3203 11.4609 27.5234 12.8828C27.7266 14.237 27.9297 16.0312 28.1328 18.2656C28.4036 20.5 28.6745 23.0729 28.9453 25.9844C29.2839 28.8281 29.6224 31.8073 29.9609 34.9219C30.2995 37.9688 30.638 41.0156 30.9766 44.0625C31.3151 47.0417 31.6875 49.75 32.0938 52.1875C32.2292 49.9531 32.3646 47.4818 32.5 44.7734C32.6354 41.9974 32.7708 39.1875 32.9062 36.3438C33.1094 33.5 33.2786 30.724 33.4141 28.0156C33.6172 25.3073 33.7865 22.8359 33.9219 20.6016C34.125 18.3672 34.2943 16.4714 34.4297 14.9141C34.6328 13.2891 34.8359 12.2057 35.0391 11.6641C35.4453 10.3099 36.1562 9.05729 37.1719 7.90625C38.1875 6.6875 39.237 5.70573 40.3203 4.96094C41.4714 4.14844 42.5208 3.60677 43.4688 3.33594C44.4844 2.9974 45.1276 2.96354 45.3984 3.23438ZM72.7188 32.7891C73.3958 33.1953 74.0391 33.9401 74.6484 35.0234C75.3255 36.1068 75.9349 37.3594 76.4766 38.7812C77.0182 40.1354 77.4583 41.625 77.7969 43.25C78.1354 44.8073 78.3047 46.2969 78.3047 47.7188C78.3047 48.6667 78.1693 50.0885 77.8984 51.9844C77.6276 53.8125 77.2891 55.8438 76.8828 58.0781C76.4766 60.2448 76.0365 62.4792 75.5625 64.7812C75.0885 67.0833 74.6484 69.1823 74.2422 71.0781C73.8359 72.974 73.4635 74.5651 73.125 75.8516C72.7865 77.138 72.5833 77.849 72.5156 77.9844C72.3802 78.1875 71.974 78.3229 71.2969 78.3906C70.6875 78.4583 70.0104 78.4245 69.2656 78.2891C68.5885 78.1536 67.9453 77.9505 67.3359 77.6797C66.7266 77.4089 66.3542 77.0703 66.2188 76.6641C66.151 76.3932 66.1172 75.5469 66.1172 74.125C66.1849 72.6354 66.2526 70.875 66.3203 68.8438C66.4557 66.8125 66.5911 64.612 66.7266 62.2422C66.9297 59.8724 67.099 57.6719 67.2344 55.6406C67.3698 53.5417 67.4714 51.7474 67.5391 50.2578C67.6745 48.7682 67.7422 47.888 67.7422 47.6172C67.8099 46.5339 67.7083 45.4844 67.4375 44.4688C67.2344 43.3854 66.9297 42.4714 66.5234 41.7266C66.1849 40.9818 65.7786 40.4062 65.3047 40C64.8984 39.5938 64.4922 39.4583 64.0859 39.5938C63.4766 39.7292 62.8672 39.8984 62.2578 40.1016C61.7161 40.3047 61.2422 40.474 60.8359 40.6094C60.2943 40.8125 59.8203 41.0156 59.4141 41.2188C59.3464 46.2292 59.2448 51.138 59.1094 55.9453C58.974 60.7526 58.8047 65.0859 58.6016 68.9453C58.3984 72.737 58.1615 75.8177 57.8906 78.1875C57.6875 80.4896 57.4505 81.6745 57.1797 81.7422C56.638 81.8099 56.0286 81.5729 55.3516 81.0312C54.7422 80.4896 54.1328 79.8125 53.5234 79C52.9141 78.2552 52.3724 77.4427 51.8984 76.5625C51.4922 75.6823 51.2214 74.9375 51.0859 74.3281C50.5443 67.6927 50.1042 61.7682 49.7656 56.5547C49.4271 51.2734 49.1562 46.6016 48.9531 42.5391C48.75 38.4766 48.5807 34.9557 48.4453 31.9766C48.3776 28.9974 48.3438 26.4583 48.3438 24.3594C48.276 19.4167 48.3438 15.9974 48.5469 14.1016C48.8177 12.6797 49.4271 11.3255 50.375 10.0391C51.3229 8.6849 52.3385 7.5 53.4219 6.48438C54.5729 5.46875 55.6224 4.72396 56.5703 4.25C57.5859 3.70833 58.263 3.57292 58.6016 3.84375C58.8047 4.04688 58.974 4.99479 59.1094 6.6875C59.3125 8.3125 59.4479 10.513 59.5156 13.2891C59.5833 15.9974 59.6172 19.1458 59.6172 22.7344C59.6172 26.2552 59.5833 29.9792 59.5156 33.9062C62.224 32.8229 64.7292 32.1458 67.0312 31.875C69.401 31.6042 71.2969 31.9089 72.7188 32.7891ZM91.4062 49.6484C92.4896 49.2422 93.7083 48.8021 95.0625 48.3281C96.4844 47.7865 97.8385 47.3125 99.125 46.9062C100.411 46.4323 101.562 46.026 102.578 45.6875C103.594 45.349 104.339 45.0781 104.812 44.875C104.745 44.1302 104.643 43.2839 104.508 42.3359C104.44 41.3203 104.339 40.3724 104.203 39.4922C104.068 38.5443 103.898 37.7318 103.695 37.0547C103.492 36.3776 103.289 35.9714 103.086 35.8359C102.544 35.6328 101.63 35.4635 100.344 35.3281C99.125 35.125 97.8385 35.1589 96.4844 35.4297C95.1979 35.7005 94.013 36.2083 92.9297 36.9531C91.8464 37.6979 91.237 38.8828 91.1016 40.5078C90.9661 41.5911 90.9323 42.9453 91 44.5703C91.0677 46.1953 91.2031 47.888 91.4062 49.6484ZM113.445 51.2734C113.378 51.4089 112.565 51.6797 111.008 52.0859C109.451 52.4922 107.589 52.9323 105.422 53.4062C103.255 53.8125 100.953 54.2526 98.5156 54.7266C96.0781 55.1328 93.9792 55.4714 92.2188 55.7422C92.5573 58.4505 92.9635 60.888 93.4375 63.0547C93.9115 65.1536 94.3177 66.474 94.6562 67.0156C94.9948 67.4896 95.4349 67.9297 95.9766 68.3359C96.4505 68.6745 97.026 69.013 97.7031 69.3516C98.4479 69.6224 99.3281 69.8255 100.344 69.9609C101.089 70.1641 101.799 69.8932 102.477 69.1484C103.018 68.4714 103.492 67.2865 103.898 65.5938C104.372 63.901 104.609 61.2266 104.609 57.5703C106.708 57.2318 108.333 57.0286 109.484 56.9609C110.703 56.8932 111.583 56.8932 112.125 56.9609C112.802 57.0286 113.208 57.1302 113.344 57.2656C113.411 57.4688 113.411 57.9766 113.344 58.7891C113.276 59.6016 113.107 60.6172 112.836 61.8359C112.633 62.987 112.362 64.2734 112.023 65.6953C111.753 67.0495 111.414 68.3698 111.008 69.6562C110.602 70.875 110.161 71.9922 109.688 73.0078C109.214 73.9557 108.706 74.6328 108.164 75.0391C106.539 76.2578 104.508 76.8672 102.07 76.8672C99.6328 76.7995 97.2292 76.4609 94.8594 75.8516C92.4896 75.1745 90.3568 74.3958 88.4609 73.5156C86.5651 72.5677 85.3802 71.7891 84.9062 71.1797C84.5677 70.7734 84.263 69.7578 83.9922 68.1328C83.7214 66.4401 83.4844 64.4089 83.2812 62.0391C83.1458 59.6693 83.0443 57.0625 82.9766 54.2188C82.9089 51.375 82.9427 48.599 83.0781 45.8906C83.2812 43.1823 83.5521 40.6771 83.8906 38.375C84.2969 36.0729 84.8385 34.2109 85.5156 32.7891C86.5312 30.7578 88.1901 29.099 90.4922 27.8125C92.7943 26.526 95.2318 25.6458 97.8047 25.1719C100.378 24.6979 102.815 24.6302 105.117 24.9688C107.487 25.3073 109.247 26.0521 110.398 27.2031C111.076 27.8802 111.685 29.2344 112.227 31.2656C112.768 33.2292 113.107 35.6328 113.242 38.4766C113.242 38.7474 113.276 39.526 113.344 40.8125C113.411 42.099 113.445 43.487 113.445 44.9766C113.513 46.3984 113.547 47.7526 113.547 49.0391C113.547 50.3255 113.513 51.0703 113.445 51.2734ZM142.086 23.6484C142.628 23.987 143.135 24.6641 143.609 25.6797C144.151 26.6276 144.625 27.7448 145.031 29.0312C145.505 30.25 145.878 31.5703 146.148 32.9922C146.487 34.4141 146.758 35.7344 146.961 36.9531C147.232 38.1719 147.401 39.2214 147.469 40.1016C147.536 40.9141 147.536 41.4219 147.469 41.625C147.333 41.8958 146.927 42.1667 146.25 42.4375C145.641 42.7083 144.727 43.013 143.508 43.3516C142.289 43.6901 140.596 44.0625 138.43 44.4688C138.294 40.7448 138.023 37.9349 137.617 36.0391C137.211 34.0755 136.771 32.6875 136.297 31.875C135.755 30.9271 135.18 30.4531 134.57 30.4531C133.961 30.724 133.419 31.0625 132.945 31.4688C132.471 31.8073 132.065 32.1797 131.727 32.5859C131.32 33.0599 130.948 33.5677 130.609 34.1094C130.474 34.3125 130.339 34.7865 130.203 35.5312C130.068 36.276 129.932 37.3932 129.797 38.8828C129.797 39.3568 129.763 40.3385 129.695 41.8281C129.695 43.3177 129.661 45.0443 129.594 47.0078C129.594 48.9714 129.56 51.0365 129.492 53.2031C129.492 55.3698 129.458 57.401 129.391 59.2969C129.391 61.125 129.357 62.6823 129.289 63.9688C129.289 65.2552 129.255 66 129.188 66.2031C129.052 66.5417 128.714 67.0156 128.172 67.625C127.63 68.2344 127.021 68.8099 126.344 69.3516C125.667 69.8255 125.023 70.2318 124.414 70.5703C123.805 70.8411 123.398 70.8073 123.195 70.4688C122.992 70.2656 122.789 69.3854 122.586 67.8281C122.383 66.2708 122.146 64.375 121.875 62.1406C121.672 59.8385 121.435 57.3333 121.164 54.625C120.893 51.9167 120.656 49.3099 120.453 46.8047C120.25 44.2995 120.081 42.0651 119.945 40.1016C119.81 38.0703 119.708 36.6146 119.641 35.7344C119.573 34.4479 119.505 33.026 119.438 31.4688C119.37 29.9115 119.302 28.4557 119.234 27.1016C119.234 25.6797 119.234 24.4609 119.234 23.4453C119.302 22.362 119.438 21.7188 119.641 21.5156C119.776 21.3125 120.216 21.2786 120.961 21.4141C121.773 21.4818 122.62 21.6849 123.5 22.0234C124.448 22.2943 125.328 22.6667 126.141 23.1406C126.953 23.6146 127.495 24.0547 127.766 24.4609C127.969 24.7995 128.172 25.3073 128.375 25.9844C129.661 25.3073 130.88 24.6979 132.031 24.1562C133.25 23.5469 134.401 23.1068 135.484 22.8359C136.635 22.5651 137.753 22.4974 138.836 22.6328C139.919 22.7005 141.003 23.0391 142.086 23.6484ZM158.641 49.6484C159.724 49.2422 160.943 48.8021 162.297 48.3281C163.719 47.7865 165.073 47.3125 166.359 46.9062C167.646 46.4323 168.797 46.026 169.812 45.6875C170.828 45.349 171.573 45.0781 172.047 44.875C171.979 44.1302 171.878 43.2839 171.742 42.3359C171.674 41.3203 171.573 40.3724 171.438 39.4922C171.302 38.5443 171.133 37.7318 170.93 37.0547C170.727 36.3776 170.523 35.9714 170.32 35.8359C169.779 35.6328 168.865 35.4635 167.578 35.3281C166.359 35.125 165.073 35.1589 163.719 35.4297C162.432 35.7005 161.247 36.2083 160.164 36.9531C159.081 37.6979 158.471 38.8828 158.336 40.5078C158.201 41.5911 158.167 42.9453 158.234 44.5703C158.302 46.1953 158.438 47.888 158.641 49.6484ZM180.68 51.2734C180.612 51.4089 179.799 51.6797 178.242 52.0859C176.685 52.4922 174.823 52.9323 172.656 53.4062C170.49 53.8125 168.188 54.2526 165.75 54.7266C163.312 55.1328 161.214 55.4714 159.453 55.7422C159.792 58.4505 160.198 60.888 160.672 63.0547C161.146 65.1536 161.552 66.474 161.891 67.0156C162.229 67.4896 162.669 67.9297 163.211 68.3359C163.685 68.6745 164.26 69.013 164.938 69.3516C165.682 69.6224 166.562 69.8255 167.578 69.9609C168.323 70.1641 169.034 69.8932 169.711 69.1484C170.253 68.4714 170.727 67.2865 171.133 65.5938C171.607 63.901 171.844 61.2266 171.844 57.5703C173.943 57.2318 175.568 57.0286 176.719 56.9609C177.938 56.8932 178.818 56.8932 179.359 56.9609C180.036 57.0286 180.443 57.1302 180.578 57.2656C180.646 57.4688 180.646 57.9766 180.578 58.7891C180.51 59.6016 180.341 60.6172 180.07 61.8359C179.867 62.987 179.596 64.2734 179.258 65.6953C178.987 67.0495 178.648 68.3698 178.242 69.6562C177.836 70.875 177.396 71.9922 176.922 73.0078C176.448 73.9557 175.94 74.6328 175.398 75.0391C173.773 76.2578 171.742 76.8672 169.305 76.8672C166.867 76.7995 164.464 76.4609 162.094 75.8516C159.724 75.1745 157.591 74.3958 155.695 73.5156C153.799 72.5677 152.615 71.7891 152.141 71.1797C151.802 70.7734 151.497 69.7578 151.227 68.1328C150.956 66.4401 150.719 64.4089 150.516 62.0391C150.38 59.6693 150.279 57.0625 150.211 54.2188C150.143 51.375 150.177 48.599 150.312 45.8906C150.516 43.1823 150.786 40.6771 151.125 38.375C151.531 36.0729 152.073 34.2109 152.75 32.7891C153.766 30.7578 155.424 29.099 157.727 27.8125C160.029 26.526 162.466 25.6458 165.039 25.1719C167.612 24.6979 170.049 24.6302 172.352 24.9688C174.721 25.3073 176.482 26.0521 177.633 27.2031C178.31 27.8802 178.919 29.2344 179.461 31.2656C180.003 33.2292 180.341 35.6328 180.477 38.4766C180.477 38.7474 180.51 39.526 180.578 40.8125C180.646 42.099 180.68 43.487 180.68 44.9766C180.747 46.3984 180.781 47.7526 180.781 49.0391C180.781 50.3255 180.747 51.0703 180.68 51.2734ZM226.688 12.2734C226.552 12.0703 226.315 11.8672 225.977 11.6641C225.706 11.4609 225.367 11.2917 224.961 11.1562C224.555 11.0208 224.148 10.987 223.742 11.0547C223.404 11.0547 223.133 11.1901 222.93 11.4609C222.727 11.7995 222.354 13.0859 221.812 15.3203C221.339 17.487 220.831 20.1953 220.289 23.4453C219.747 26.6953 219.273 30.3177 218.867 34.3125C218.461 38.3073 218.258 42.2682 218.258 46.1953C218.258 49.0391 218.359 52.0182 218.562 55.1328C218.766 58.1797 219.003 60.9896 219.273 63.5625C219.612 66.1354 219.984 68.2682 220.391 69.9609C220.865 71.5859 221.339 72.3984 221.812 72.3984C222.286 72.4661 222.93 71.9583 223.742 70.875C224.555 69.7917 225.333 68.5729 226.078 67.2188C226.823 65.7969 227.5 64.4427 228.109 63.1562C228.786 61.8021 229.227 60.888 229.43 60.4141C229.701 59.6693 230.073 58.8568 230.547 57.9766C231.021 57.0286 231.495 56.1823 231.969 55.4375C232.443 54.625 232.917 53.9818 233.391 53.5078C233.865 52.9661 234.271 52.6953 234.609 52.6953C235.016 52.6953 235.354 53.1016 235.625 53.9141C235.964 54.7266 236.201 55.7083 236.336 56.8594C236.539 57.9427 236.674 59.0938 236.742 60.3125C236.81 61.4635 236.844 62.4115 236.844 63.1562C236.844 64.5104 236.573 66.2031 236.031 68.2344C235.557 70.2656 234.914 72.2292 234.102 74.125C233.357 76.0208 232.51 77.6458 231.562 79C230.682 80.3542 229.836 80.9974 229.023 80.9297C228.211 80.862 226.891 80.388 225.062 79.5078C223.302 78.6276 221.474 77.612 219.578 76.4609C217.682 75.3099 215.956 74.1589 214.398 73.0078C212.841 71.8568 211.927 70.9427 211.656 70.2656C211.318 69.6562 210.81 68.2005 210.133 65.8984C209.523 63.5286 208.88 60.6849 208.203 57.3672C207.526 54.0495 206.917 50.3932 206.375 46.3984C205.901 42.4036 205.664 38.375 205.664 34.3125C205.664 30.25 205.698 26.2552 205.766 22.3281C205.833 18.3333 205.969 14.7786 206.172 11.6641C206.443 8.54948 206.849 6.04427 207.391 4.14844C207.932 2.1849 208.677 1.13542 209.625 1C211.521 0.796875 213.586 0.932292 215.82 1.40625C218.055 1.8125 220.289 2.45573 222.523 3.33594C224.758 4.21615 226.891 5.23177 228.922 6.38281C231.021 7.46615 232.883 8.61719 234.508 9.83594C236.133 10.987 237.419 12.1042 238.367 13.1875C239.383 14.2708 239.924 15.1849 239.992 15.9297C240.06 17.0807 239.924 18.3672 239.586 19.7891C239.247 21.2109 238.841 22.599 238.367 23.9531C237.893 25.2396 237.385 26.4245 236.844 27.5078C236.37 28.5234 235.997 29.2344 235.727 29.6406C235.388 30.1146 234.982 30.6224 234.508 31.1641C234.034 31.7057 233.526 32.1797 232.984 32.5859C232.51 32.9922 232.003 33.2969 231.461 33.5C230.987 33.6354 230.547 33.5339 230.141 33.1953C229.87 32.9922 229.599 32.349 229.328 31.2656C229.125 30.1823 228.888 28.8958 228.617 27.4062C228.414 25.9167 228.211 24.3255 228.008 22.6328C227.805 20.8724 227.602 19.2474 227.398 17.7578C227.263 16.2682 227.128 15.0156 226.992 14C226.857 12.9844 226.755 12.4089 226.688 12.2734ZM265.281 23.4453C265.755 23.8516 266.195 24.6302 266.602 25.7812C267.076 26.9323 267.482 28.3203 267.82 29.9453C268.159 31.5703 268.464 33.3307 268.734 35.2266C269.005 37.1224 269.242 38.9844 269.445 40.8125C269.648 42.6406 269.784 44.3672 269.852 45.9922C269.987 47.5495 270.089 48.8359 270.156 49.8516C270.224 51.0703 270.258 52.3568 270.258 53.7109C270.326 54.9974 270.326 56.25 270.258 57.4688C270.258 58.6198 270.19 59.6693 270.055 60.6172C269.987 61.5651 269.852 62.276 269.648 62.75C269.242 63.7656 268.531 64.4766 267.516 64.8828C266.568 65.2214 265.484 65.4583 264.266 65.5938C263.656 65.6615 262.607 65.6953 261.117 65.6953C259.695 65.6276 258.138 65.5599 256.445 65.4922C254.82 65.3568 253.263 65.2214 251.773 65.0859C250.284 64.9505 249.167 64.8151 248.422 64.6797C246.932 64.3411 245.849 63.901 245.172 63.3594C244.562 62.8177 243.953 62.0391 243.344 61.0234C243.141 60.6172 242.971 59.6016 242.836 57.9766C242.701 56.2839 242.599 54.2865 242.531 51.9844C242.531 49.6146 242.565 47.0755 242.633 44.3672C242.701 41.6589 242.802 39.0859 242.938 36.6484C243.141 34.2109 243.344 32.0781 243.547 30.25C243.818 28.4219 244.156 27.2031 244.562 26.5938C245.24 25.6458 246.391 24.7656 248.016 23.9531C249.708 23.1406 251.232 22.4974 252.586 22.0234C253.263 21.8203 254.143 21.6849 255.227 21.6172C256.378 21.4818 257.562 21.4818 258.781 21.6172C260.068 21.6849 261.286 21.888 262.438 22.2266C263.589 22.4974 264.536 22.9036 265.281 23.4453ZM259.594 54.9297C259.729 54.6589 259.865 53.8464 260 52.4922C260.203 51.0703 260.339 49.3776 260.406 47.4141C260.542 45.4505 260.609 43.3516 260.609 41.1172C260.677 38.8828 260.711 36.8177 260.711 34.9219C260.711 33.026 260.643 31.4349 260.508 30.1484C260.372 28.7943 260.203 28.0156 260 27.8125C259.661 27.5417 259.154 27.4401 258.477 27.5078C257.867 27.5078 257.224 27.6094 256.547 27.8125C255.87 27.9479 255.26 28.151 254.719 28.4219C254.177 28.625 253.805 28.8281 253.602 29.0312C252.721 29.776 252.247 30.9948 252.18 32.6875C252.18 33.1615 252.112 34.5156 251.977 36.75C251.909 38.9167 251.875 41.2865 251.875 43.8594C251.875 46.3646 251.909 48.7005 251.977 50.8672C252.112 53.0339 252.349 54.3542 252.688 54.8281C253.026 55.3021 253.5 55.6745 254.109 55.9453C254.786 56.1484 255.464 56.25 256.141 56.25C256.885 56.25 257.562 56.1484 258.172 55.9453C258.849 55.6745 259.323 55.3359 259.594 54.9297ZM304.586 36.4453C304.586 37.5286 304.451 39.0859 304.18 41.1172C303.977 43.1484 303.672 45.3828 303.266 47.8203C302.859 50.1901 302.419 52.6615 301.945 55.2344C301.539 57.7396 301.099 60.0417 300.625 62.1406C300.219 64.2396 299.846 66 299.508 67.4219C299.237 68.8438 299.068 69.6224 299 69.7578C298.865 69.9609 298.492 70.0964 297.883 70.1641C297.341 70.1641 296.698 70.0964 295.953 69.9609C295.276 69.8255 294.633 69.6224 294.023 69.3516C293.482 69.0807 293.143 68.7422 293.008 68.3359C292.94 68.0651 292.906 67.1172 292.906 65.4922C292.974 63.8672 293.042 61.9375 293.109 59.7031C293.245 57.401 293.38 54.9635 293.516 52.3906C293.651 49.75 293.786 47.3125 293.922 45.0781C294.125 42.776 294.26 40.8125 294.328 39.1875C294.464 37.5625 294.531 36.5807 294.531 36.2422C294.531 35.0234 294.396 33.8724 294.125 32.7891C293.922 31.638 293.651 30.6562 293.312 29.8438C292.974 29.0312 292.568 28.4219 292.094 28.0156C291.688 27.5417 291.315 27.3724 290.977 27.5078C290.096 27.6432 289.352 27.8802 288.742 28.2188C288.133 28.4896 287.625 28.7943 287.219 29.1328C286.745 29.5391 286.372 30.013 286.102 30.5547C286.034 30.6901 285.898 31.0964 285.695 31.7734C285.56 32.4505 285.492 33.2292 285.492 34.1094C285.492 34.3802 285.492 35.362 285.492 37.0547C285.492 38.6797 285.458 40.6432 285.391 42.9453C285.391 45.2474 285.357 47.7526 285.289 50.4609C285.289 53.1016 285.255 55.5729 285.188 57.875C285.188 60.1094 285.154 62.0391 285.086 63.6641C285.018 65.2891 284.951 66.2031 284.883 66.4062C284.747 66.8125 284.409 67.388 283.867 68.1328C283.326 68.8099 282.716 69.4531 282.039 70.0625C281.362 70.6719 280.719 71.1458 280.109 71.4844C279.5 71.7552 279.094 71.6875 278.891 71.2812C278.688 71.0781 278.484 70.0964 278.281 68.3359C278.078 66.5078 277.841 64.3073 277.57 61.7344C277.367 59.0938 277.13 56.25 276.859 53.2031C276.589 50.0885 276.352 47.1094 276.148 44.2656C275.945 41.4219 275.776 38.849 275.641 36.5469C275.505 34.2448 275.404 32.5859 275.336 31.5703C275.268 30.1484 275.201 28.5573 275.133 26.7969C275.065 24.9688 274.997 23.276 274.93 21.7188C274.93 20.0938 274.93 18.7057 274.93 17.5547C274.997 16.3359 275.133 15.5911 275.336 15.3203C275.471 15.0495 275.911 14.9818 276.656 15.1172C277.469 15.2526 278.315 15.5234 279.195 15.9297C280.143 16.2682 281.023 16.7083 281.836 17.25C282.648 17.724 283.19 18.1979 283.461 18.6719C283.596 19.0781 283.766 19.5521 283.969 20.0938C284.172 20.5677 284.341 21.3802 284.477 22.5312C285.628 21.8542 286.88 21.2448 288.234 20.7031C289.589 20.0938 290.909 19.6536 292.195 19.3828C293.549 19.0443 294.836 18.9427 296.055 19.0781C297.273 19.1458 298.357 19.4844 299.305 20.0938C299.914 20.5677 300.523 21.3802 301.133 22.5312C301.81 23.6823 302.385 25.0365 302.859 26.5938C303.401 28.151 303.807 29.8099 304.078 31.5703C304.417 33.263 304.586 34.888 304.586 36.4453ZM316.977 66.3047C316.029 62.8516 314.979 58.7891 313.828 54.1172C312.88 50.1224 311.729 45.2812 310.375 39.5938C309.089 33.8385 307.701 27.2708 306.211 19.8906C306.211 19.4167 306.516 18.8411 307.125 18.1641C307.667 17.4193 308.344 16.7422 309.156 16.1328C309.969 15.4557 310.815 14.9141 311.695 14.5078C312.576 14.0339 313.354 13.7969 314.031 13.7969C314.302 14.2031 314.776 15.9974 315.453 19.1797C315.724 20.5339 316.029 22.2604 316.367 24.3594C316.773 26.3906 317.214 28.9297 317.688 31.9766C318.161 35.0234 318.669 38.612 319.211 42.7422C319.82 46.8047 320.497 51.5104 321.242 56.8594C321.784 53.2031 322.292 49.75 322.766 46.5C323.307 43.25 323.781 40.3724 324.188 37.8672C324.661 34.9557 325.102 32.2474 325.508 29.7422C325.711 28.1849 325.948 26.5599 326.219 24.8672C326.49 23.1068 326.76 21.5156 327.031 20.0938C327.37 18.6719 327.708 17.487 328.047 16.5391C328.453 15.5234 328.859 15.0156 329.266 15.0156C329.672 15.0156 330.281 15.1172 331.094 15.3203C331.906 15.4557 332.719 15.6589 333.531 15.9297C334.411 16.2005 335.19 16.5391 335.867 16.9453C336.544 17.2839 336.883 17.6562 336.883 18.0625C336.883 18.2656 336.68 19.2812 336.273 21.1094C335.867 22.8698 335.326 25.138 334.648 27.9141C333.971 30.6901 333.193 33.8385 332.312 37.3594C331.432 40.8125 330.518 44.3333 329.57 47.9219C328.69 51.5104 327.776 55.0312 326.828 58.4844C325.88 61.9375 325 65.0182 324.188 67.7266C323.443 70.3672 322.799 72.5339 322.258 74.2266C321.716 75.8516 321.344 76.6641 321.141 76.6641C320.938 76.6641 320.362 75.75 319.414 73.9219C318.534 72.026 317.721 69.487 316.977 66.3047ZM345.82 49.6484C346.904 49.2422 348.122 48.8021 349.477 48.3281C350.898 47.7865 352.253 47.3125 353.539 46.9062C354.826 46.4323 355.977 46.026 356.992 45.6875C358.008 45.349 358.753 45.0781 359.227 44.875C359.159 44.1302 359.057 43.2839 358.922 42.3359C358.854 41.3203 358.753 40.3724 358.617 39.4922C358.482 38.5443 358.312 37.7318 358.109 37.0547C357.906 36.3776 357.703 35.9714 357.5 35.8359C356.958 35.6328 356.044 35.4635 354.758 35.3281C353.539 35.125 352.253 35.1589 350.898 35.4297C349.612 35.7005 348.427 36.2083 347.344 36.9531C346.26 37.6979 345.651 38.8828 345.516 40.5078C345.38 41.5911 345.346 42.9453 345.414 44.5703C345.482 46.1953 345.617 47.888 345.82 49.6484ZM367.859 51.2734C367.792 51.4089 366.979 51.6797 365.422 52.0859C363.865 52.4922 362.003 52.9323 359.836 53.4062C357.669 53.8125 355.367 54.2526 352.93 54.7266C350.492 55.1328 348.393 55.4714 346.633 55.7422C346.971 58.4505 347.378 60.888 347.852 63.0547C348.326 65.1536 348.732 66.474 349.07 67.0156C349.409 67.4896 349.849 67.9297 350.391 68.3359C350.865 68.6745 351.44 69.013 352.117 69.3516C352.862 69.6224 353.742 69.8255 354.758 69.9609C355.503 70.1641 356.214 69.8932 356.891 69.1484C357.432 68.4714 357.906 67.2865 358.312 65.5938C358.786 63.901 359.023 61.2266 359.023 57.5703C361.122 57.2318 362.747 57.0286 363.898 56.9609C365.117 56.8932 365.997 56.8932 366.539 56.9609C367.216 57.0286 367.622 57.1302 367.758 57.2656C367.826 57.4688 367.826 57.9766 367.758 58.7891C367.69 59.6016 367.521 60.6172 367.25 61.8359C367.047 62.987 366.776 64.2734 366.438 65.6953C366.167 67.0495 365.828 68.3698 365.422 69.6562C365.016 70.875 364.576 71.9922 364.102 73.0078C363.628 73.9557 363.12 74.6328 362.578 75.0391C360.953 76.2578 358.922 76.8672 356.484 76.8672C354.047 76.7995 351.643 76.4609 349.273 75.8516C346.904 75.1745 344.771 74.3958 342.875 73.5156C340.979 72.5677 339.794 71.7891 339.32 71.1797C338.982 70.7734 338.677 69.7578 338.406 68.1328C338.135 66.4401 337.898 64.4089 337.695 62.0391C337.56 59.6693 337.458 57.0625 337.391 54.2188C337.323 51.375 337.357 48.599 337.492 45.8906C337.695 43.1823 337.966 40.6771 338.305 38.375C338.711 36.0729 339.253 34.2109 339.93 32.7891C340.945 30.7578 342.604 29.099 344.906 27.8125C347.208 26.526 349.646 25.6458 352.219 25.1719C354.792 24.6979 357.229 24.6302 359.531 24.9688C361.901 25.3073 363.661 26.0521 364.812 27.2031C365.49 27.8802 366.099 29.2344 366.641 31.2656C367.182 33.2292 367.521 35.6328 367.656 38.4766C367.656 38.7474 367.69 39.526 367.758 40.8125C367.826 42.099 367.859 43.487 367.859 44.9766C367.927 46.3984 367.961 47.7526 367.961 49.0391C367.961 50.3255 367.927 51.0703 367.859 51.2734ZM396.5 23.6484C397.042 23.987 397.549 24.6641 398.023 25.6797C398.565 26.6276 399.039 27.7448 399.445 29.0312C399.919 30.25 400.292 31.5703 400.562 32.9922C400.901 34.4141 401.172 35.7344 401.375 36.9531C401.646 38.1719 401.815 39.2214 401.883 40.1016C401.951 40.9141 401.951 41.4219 401.883 41.625C401.747 41.8958 401.341 42.1667 400.664 42.4375C400.055 42.7083 399.141 43.013 397.922 43.3516C396.703 43.6901 395.01 44.0625 392.844 44.4688C392.708 40.7448 392.438 37.9349 392.031 36.0391C391.625 34.0755 391.185 32.6875 390.711 31.875C390.169 30.9271 389.594 30.4531 388.984 30.4531C388.375 30.724 387.833 31.0625 387.359 31.4688C386.885 31.8073 386.479 32.1797 386.141 32.5859C385.734 33.0599 385.362 33.5677 385.023 34.1094C384.888 34.3125 384.753 34.7865 384.617 35.5312C384.482 36.276 384.346 37.3932 384.211 38.8828C384.211 39.3568 384.177 40.3385 384.109 41.8281C384.109 43.3177 384.076 45.0443 384.008 47.0078C384.008 48.9714 383.974 51.0365 383.906 53.2031C383.906 55.3698 383.872 57.401 383.805 59.2969C383.805 61.125 383.771 62.6823 383.703 63.9688C383.703 65.2552 383.669 66 383.602 66.2031C383.466 66.5417 383.128 67.0156 382.586 67.625C382.044 68.2344 381.435 68.8099 380.758 69.3516C380.081 69.8255 379.438 70.2318 378.828 70.5703C378.219 70.8411 377.812 70.8073 377.609 70.4688C377.406 70.2656 377.203 69.3854 377 67.8281C376.797 66.2708 376.56 64.375 376.289 62.1406C376.086 59.8385 375.849 57.3333 375.578 54.625C375.307 51.9167 375.07 49.3099 374.867 46.8047C374.664 44.2995 374.495 42.0651 374.359 40.1016C374.224 38.0703 374.122 36.6146 374.055 35.7344C373.987 34.4479 373.919 33.026 373.852 31.4688C373.784 29.9115 373.716 28.4557 373.648 27.1016C373.648 25.6797 373.648 24.4609 373.648 23.4453C373.716 22.362 373.852 21.7188 374.055 21.5156C374.19 21.3125 374.63 21.2786 375.375 21.4141C376.188 21.4818 377.034 21.6849 377.914 22.0234C378.862 22.2943 379.742 22.6667 380.555 23.1406C381.367 23.6146 381.909 24.0547 382.18 24.4609C382.383 24.7995 382.586 25.3073 382.789 25.9844C384.076 25.3073 385.294 24.6979 386.445 24.1562C387.664 23.5469 388.815 23.1068 389.898 22.8359C391.049 22.5651 392.167 22.4974 393.25 22.6328C394.333 22.7005 395.417 23.0391 396.5 23.6484ZM434.891 29.0312C434.958 29.776 434.823 30.9271 434.484 32.4844C434.214 34.0417 433.773 35.599 433.164 37.1562C432.622 38.7135 431.878 40.0677 430.93 41.2188C430.049 42.3698 429.034 42.9453 427.883 42.9453C427.07 42.9453 426.393 42.3021 425.852 41.0156C425.378 39.7292 425.005 38.2396 424.734 36.5469C424.531 34.7865 424.362 33.0599 424.227 31.3672C424.091 29.6745 423.956 28.4896 423.82 27.8125C423.617 27.474 423.211 27.1693 422.602 26.8984C422.06 26.5599 421.518 26.3906 420.977 26.3906C420.435 26.3906 419.826 26.8307 419.148 27.7109C418.471 28.5911 417.794 29.6068 417.117 30.7578C416.508 31.9089 415.966 33.0599 415.492 34.2109C415.086 35.362 414.917 36.2083 414.984 36.75C414.984 37.1562 415.424 37.8672 416.305 38.8828C417.185 39.8984 418.268 41.1172 419.555 42.5391C420.909 43.8932 422.331 45.3828 423.82 47.0078C425.378 48.5651 426.799 50.1562 428.086 51.7812C429.372 53.3385 430.456 54.8281 431.336 56.25C432.284 57.6719 432.792 58.8906 432.859 59.9062C432.927 61.125 432.589 62.6823 431.844 64.5781C431.167 66.474 430.286 68.3021 429.203 70.0625C428.12 71.8229 426.969 73.3464 425.75 74.6328C424.531 75.9193 423.448 76.5964 422.5 76.6641C421.552 76.7318 420.164 76.224 418.336 75.1406C416.576 73.9896 414.781 72.6693 412.953 71.1797C411.193 69.6224 409.602 68.099 408.18 66.6094C406.826 65.1198 406.047 64.0365 405.844 63.3594C405.641 62.75 405.505 61.9375 405.438 60.9219C405.438 59.9062 405.471 58.8906 405.539 57.875C405.674 56.8594 405.878 56.013 406.148 55.3359C406.419 54.5911 406.758 54.2188 407.164 54.2188C407.57 54.2188 408.383 54.9297 409.602 56.3516C410.82 57.7057 412.141 59.263 413.562 61.0234C414.984 62.7161 416.372 64.2734 417.727 65.6953C419.081 67.0495 420.062 67.7266 420.672 67.7266C421.01 67.7266 421.383 67.4896 421.789 67.0156C422.195 66.474 422.568 65.8646 422.906 65.1875C423.245 64.5104 423.516 63.8333 423.719 63.1562C423.99 62.4115 424.125 61.8359 424.125 61.4297C424.057 60.8203 423.516 59.9401 422.5 58.7891C421.484 57.638 420.198 56.3516 418.641 54.9297C417.083 53.5078 415.391 52.0182 413.562 50.4609C411.734 48.8359 410.042 47.3125 408.484 45.8906C406.927 44.4688 405.641 43.1823 404.625 42.0312C403.609 40.8802 403.068 40 403 39.3906C402.932 38.7812 403.135 37.8333 403.609 36.5469C404.083 35.1927 404.693 33.737 405.438 32.1797C406.182 30.5547 407.029 28.8958 407.977 27.2031C408.992 25.5104 410.008 23.9531 411.023 22.5312C412.039 21.1094 413.021 19.9583 413.969 19.0781C414.984 18.1302 415.865 17.6562 416.609 17.6562C418.099 17.6562 419.859 18.0625 421.891 18.875C423.99 19.6875 425.987 20.7031 427.883 21.9219C429.779 23.0729 431.404 24.2917 432.758 25.5781C434.112 26.8646 434.823 28.0156 434.891 29.0312ZM465.359 25.5781C465.766 26.0521 466.138 26.5599 466.477 27.1016C466.815 27.5755 467.12 28.2526 467.391 29.1328C467.661 29.9453 467.865 31.0286 468 32.3828C468.203 33.737 468.305 35.4974 468.305 37.6641C468.305 41.1172 468.203 44.6042 468 48.125C467.865 51.5781 467.729 54.625 467.594 57.2656C467.526 59.6354 467.458 61.8359 467.391 63.8672C467.323 65.8984 467.255 67.6927 467.188 69.25C467.12 70.7396 467.018 71.9245 466.883 72.8047C466.815 73.6849 466.747 74.1589 466.68 74.2266C466.409 74.4297 465.969 74.362 465.359 74.0234C464.818 73.6172 464.208 73.1094 463.531 72.5C462.922 71.8906 462.346 71.2474 461.805 70.5703C461.263 69.8932 460.924 69.3516 460.789 68.9453C460.789 68.6068 460.688 67.625 460.484 66C458.859 66.9479 457.065 67.625 455.102 68.0312C453.138 68.3698 451.174 68.5052 449.211 68.4375C447.315 68.3021 445.555 67.9297 443.93 67.3203C442.305 66.7109 441.086 65.8984 440.273 64.8828C439.935 64.4766 439.63 63.8672 439.359 63.0547C439.156 62.2422 438.953 61.3281 438.75 60.3125C438.615 59.2292 438.479 58.112 438.344 56.9609C438.208 55.7422 438.107 54.625 438.039 53.6094C437.904 50.9688 438.242 48.7005 439.055 46.8047C439.867 44.8411 441.357 43.3854 443.523 42.4375C444.471 42.0312 445.724 41.8281 447.281 41.8281C448.906 41.7604 450.497 41.8281 452.055 42.0312C453.68 42.1667 455.135 42.3698 456.422 42.6406C457.708 42.8438 458.521 43.013 458.859 43.1484C458.589 39.6953 458.385 36.7161 458.25 34.2109C458.115 31.638 457.844 29.9792 457.438 29.2344C457.099 28.7604 456.693 28.2865 456.219 27.8125C455.812 27.474 455.271 27.1016 454.594 26.6953C453.917 26.2891 453.104 25.9844 452.156 25.7812C451.411 25.6458 450.734 25.9505 450.125 26.6953C449.583 27.3724 449.076 28.5911 448.602 30.3516C448.195 32.0443 447.958 34.651 447.891 38.1719C445.521 38.2396 443.693 38.2396 442.406 38.1719C441.188 38.0365 440.273 37.901 439.664 37.7656C438.919 37.6302 438.479 37.4609 438.344 37.2578C438.208 36.987 438.276 36.0052 438.547 34.3125C438.818 32.5521 439.19 30.6562 439.664 28.625C440.206 26.5938 440.815 24.6641 441.492 22.8359C442.237 21.0078 443.016 19.8568 443.828 19.3828C445.453 18.4349 447.383 18.0964 449.617 18.3672C451.919 18.638 454.154 19.2135 456.32 20.0938C458.487 20.974 460.417 21.9557 462.109 23.0391C463.802 24.1224 464.885 24.9688 465.359 25.5781ZM459.062 55.2344C459.062 54.8958 459.096 54.4557 459.164 53.9141C459.232 53.3047 459.266 52.6953 459.266 52.0859C459.266 51.4766 459.232 50.901 459.164 50.3594C459.164 49.8177 459.096 49.4115 458.961 49.1406C458.758 48.7344 458.148 48.3958 457.133 48.125C456.185 47.8542 455.102 47.6849 453.883 47.6172C452.664 47.4818 451.513 47.4479 450.43 47.5156C449.346 47.5156 448.602 47.651 448.195 47.9219C447.654 48.2604 447.247 48.7344 446.977 49.3438C446.773 49.9531 446.638 50.901 446.57 52.1875C446.57 52.7969 446.604 53.4401 446.672 54.1172C446.74 54.7943 446.807 55.4714 446.875 56.1484C447.01 56.7578 447.146 57.2995 447.281 57.7734C447.484 58.2474 447.688 58.5521 447.891 58.6875C448.365 59.026 449.177 59.3307 450.328 59.6016C451.547 59.8047 452.766 59.8724 453.984 59.8047C455.203 59.6693 456.32 59.263 457.336 58.5859C458.352 57.9089 458.927 56.7917 459.062 55.2344ZM496.438 26.7969C496.505 27 496.505 27.5755 496.438 28.5234C496.37 29.4036 496.234 30.4193 496.031 31.5703C495.896 32.6536 495.727 33.6693 495.523 34.6172C495.32 35.4974 495.151 36.0391 495.016 36.2422C494.339 36.3099 493.661 36.3438 492.984 36.3438C492.307 36.276 491.664 36.2422 491.055 36.2422H488.922C488.854 40.7109 488.753 45.1458 488.617 49.5469C488.482 53.9479 488.312 57.9089 488.109 61.4297C487.906 64.8828 487.669 67.6927 487.398 69.8594C487.195 72.026 486.992 73.1432 486.789 73.2109C486.315 73.2786 485.773 73.0755 485.164 72.6016C484.555 72.1276 483.945 71.5521 483.336 70.875C482.794 70.1302 482.286 69.3854 481.812 68.6406C481.406 67.8281 481.169 67.1172 481.102 66.5078C480.763 62.3776 480.458 58.4505 480.188 54.7266C479.917 50.9349 479.714 47.5833 479.578 44.6719C479.307 41.2865 479.138 38.138 479.07 35.2266C478.326 35.1589 477.581 35.0573 476.836 34.9219C476.159 34.7865 475.448 34.651 474.703 34.5156C474.026 34.3802 473.315 34.2448 472.57 34.1094C472.435 33.974 472.266 33.6693 472.062 33.1953C471.859 32.6536 471.656 32.0781 471.453 31.4688C471.318 30.8594 471.182 30.2839 471.047 29.7422C470.911 29.1328 470.844 28.6927 470.844 28.4219C470.844 28.2188 471.589 28.0156 473.078 27.8125C474.635 27.6094 476.531 27.4401 478.766 27.3047C478.63 23.7161 478.529 20.6016 478.461 17.9609C478.461 15.2526 478.562 13.4245 478.766 12.4766C478.969 11.1901 479.51 9.97135 480.391 8.82031C481.339 7.60156 482.32 6.55208 483.336 5.67188C484.419 4.79167 485.401 4.14844 486.281 3.74219C487.229 3.26823 487.839 3.13281 488.109 3.33594C488.312 3.47135 488.482 4.18229 488.617 5.46875C488.753 6.6875 488.854 8.34635 488.922 10.4453C488.99 12.5443 489.023 15.0156 489.023 17.8594C489.023 20.6354 489.023 23.5807 489.023 26.6953C491.055 26.5599 492.781 26.526 494.203 26.5938C495.625 26.5938 496.37 26.6615 496.438 26.7969ZM510.352 35.3281C510.487 35.6667 510.555 36.75 510.555 38.5781C510.622 40.3385 510.622 42.5052 510.555 45.0781C510.555 47.5833 510.487 50.2917 510.352 53.2031C510.216 56.0469 510.047 58.7552 509.844 61.3281C509.708 63.8333 509.539 66 509.336 67.8281C509.133 69.5885 508.93 70.638 508.727 70.9766C508.117 71.9245 507.203 72.5339 505.984 72.8047C504.766 73.0078 503.885 73.0417 503.344 72.9062C503.073 72.9062 502.768 72.1276 502.43 70.5703C502.159 69.013 501.888 67.0495 501.617 64.6797C501.346 62.3099 501.109 59.737 500.906 56.9609C500.703 54.1849 500.534 51.5443 500.398 49.0391C500.263 46.4661 500.195 44.2318 500.195 42.3359C500.195 40.4401 500.263 39.2214 500.398 38.6797C500.602 37.7995 501.177 37.0208 502.125 36.3438C503.141 35.6667 504.19 35.1589 505.273 34.8203C506.424 34.4818 507.474 34.3464 508.422 34.4141C509.438 34.4141 510.081 34.7188 510.352 35.3281ZM510.859 18.875C511.13 19.4167 511.232 20.1615 511.164 21.1094C511.164 22.0573 511.062 23.0391 510.859 24.0547C510.656 25.0703 510.385 26.0521 510.047 27C509.708 27.9479 509.37 28.6927 509.031 29.2344C508.354 30.1823 507.339 30.7917 505.984 31.0625C504.698 31.2656 503.75 31.2995 503.141 31.1641C502.667 31.0964 502.193 30.7917 501.719 30.25C501.245 29.6406 500.839 28.9297 500.5 28.1172C500.161 27.237 499.924 26.2891 499.789 25.2734C499.654 24.2578 499.688 23.3099 499.891 22.4297C500.094 21.5495 500.737 20.7708 501.82 20.0938C502.904 19.349 504.055 18.8073 505.273 18.4688C506.492 18.0625 507.643 17.8932 508.727 17.9609C509.81 17.9609 510.521 18.2656 510.859 18.875ZM540.109 23.4453C540.583 23.8516 541.023 24.6302 541.43 25.7812C541.904 26.9323 542.31 28.3203 542.648 29.9453C542.987 31.5703 543.292 33.3307 543.562 35.2266C543.833 37.1224 544.07 38.9844 544.273 40.8125C544.477 42.6406 544.612 44.3672 544.68 45.9922C544.815 47.5495 544.917 48.8359 544.984 49.8516C545.052 51.0703 545.086 52.3568 545.086 53.7109C545.154 54.9974 545.154 56.25 545.086 57.4688C545.086 58.6198 545.018 59.6693 544.883 60.6172C544.815 61.5651 544.68 62.276 544.477 62.75C544.07 63.7656 543.359 64.4766 542.344 64.8828C541.396 65.2214 540.312 65.4583 539.094 65.5938C538.484 65.6615 537.435 65.6953 535.945 65.6953C534.523 65.6276 532.966 65.5599 531.273 65.4922C529.648 65.3568 528.091 65.2214 526.602 65.0859C525.112 64.9505 523.995 64.8151 523.25 64.6797C521.76 64.3411 520.677 63.901 520 63.3594C519.391 62.8177 518.781 62.0391 518.172 61.0234C517.969 60.6172 517.799 59.6016 517.664 57.9766C517.529 56.2839 517.427 54.2865 517.359 51.9844C517.359 49.6146 517.393 47.0755 517.461 44.3672C517.529 41.6589 517.63 39.0859 517.766 36.6484C517.969 34.2109 518.172 32.0781 518.375 30.25C518.646 28.4219 518.984 27.2031 519.391 26.5938C520.068 25.6458 521.219 24.7656 522.844 23.9531C524.536 23.1406 526.06 22.4974 527.414 22.0234C528.091 21.8203 528.971 21.6849 530.055 21.6172C531.206 21.4818 532.391 21.4818 533.609 21.6172C534.896 21.6849 536.115 21.888 537.266 22.2266C538.417 22.4974 539.365 22.9036 540.109 23.4453ZM534.422 54.9297C534.557 54.6589 534.693 53.8464 534.828 52.4922C535.031 51.0703 535.167 49.3776 535.234 47.4141C535.37 45.4505 535.438 43.3516 535.438 41.1172C535.505 38.8828 535.539 36.8177 535.539 34.9219C535.539 33.026 535.471 31.4349 535.336 30.1484C535.201 28.7943 535.031 28.0156 534.828 27.8125C534.49 27.5417 533.982 27.4401 533.305 27.5078C532.695 27.5078 532.052 27.6094 531.375 27.8125C530.698 27.9479 530.089 28.151 529.547 28.4219C529.005 28.625 528.633 28.8281 528.43 29.0312C527.549 29.776 527.076 30.9948 527.008 32.6875C527.008 33.1615 526.94 34.5156 526.805 36.75C526.737 38.9167 526.703 41.2865 526.703 43.8594C526.703 46.3646 526.737 48.7005 526.805 50.8672C526.94 53.0339 527.177 54.3542 527.516 54.8281C527.854 55.3021 528.328 55.6745 528.938 55.9453C529.615 56.1484 530.292 56.25 530.969 56.25C531.714 56.25 532.391 56.1484 533 55.9453C533.677 55.6745 534.151 55.3359 534.422 54.9297ZM579.414 36.4453C579.414 37.5286 579.279 39.0859 579.008 41.1172C578.805 43.1484 578.5 45.3828 578.094 47.8203C577.688 50.1901 577.247 52.6615 576.773 55.2344C576.367 57.7396 575.927 60.0417 575.453 62.1406C575.047 64.2396 574.674 66 574.336 67.4219C574.065 68.8438 573.896 69.6224 573.828 69.7578C573.693 69.9609 573.32 70.0964 572.711 70.1641C572.169 70.1641 571.526 70.0964 570.781 69.9609C570.104 69.8255 569.461 69.6224 568.852 69.3516C568.31 69.0807 567.971 68.7422 567.836 68.3359C567.768 68.0651 567.734 67.1172 567.734 65.4922C567.802 63.8672 567.87 61.9375 567.938 59.7031C568.073 57.401 568.208 54.9635 568.344 52.3906C568.479 49.75 568.615 47.3125 568.75 45.0781C568.953 42.776 569.089 40.8125 569.156 39.1875C569.292 37.5625 569.359 36.5807 569.359 36.2422C569.359 35.0234 569.224 33.8724 568.953 32.7891C568.75 31.638 568.479 30.6562 568.141 29.8438C567.802 29.0312 567.396 28.4219 566.922 28.0156C566.516 27.5417 566.143 27.3724 565.805 27.5078C564.924 27.6432 564.18 27.8802 563.57 28.2188C562.961 28.4896 562.453 28.7943 562.047 29.1328C561.573 29.5391 561.201 30.013 560.93 30.5547C560.862 30.6901 560.727 31.0964 560.523 31.7734C560.388 32.4505 560.32 33.2292 560.32 34.1094C560.32 34.3802 560.32 35.362 560.32 37.0547C560.32 38.6797 560.286 40.6432 560.219 42.9453C560.219 45.2474 560.185 47.7526 560.117 50.4609C560.117 53.1016 560.083 55.5729 560.016 57.875C560.016 60.1094 559.982 62.0391 559.914 63.6641C559.846 65.2891 559.779 66.2031 559.711 66.4062C559.576 66.8125 559.237 67.388 558.695 68.1328C558.154 68.8099 557.544 69.4531 556.867 70.0625C556.19 70.6719 555.547 71.1458 554.938 71.4844C554.328 71.7552 553.922 71.6875 553.719 71.2812C553.516 71.0781 553.312 70.0964 553.109 68.3359C552.906 66.5078 552.669 64.3073 552.398 61.7344C552.195 59.0938 551.958 56.25 551.688 53.2031C551.417 50.0885 551.18 47.1094 550.977 44.2656C550.773 41.4219 550.604 38.849 550.469 36.5469C550.333 34.2448 550.232 32.5859 550.164 31.5703C550.096 30.1484 550.029 28.5573 549.961 26.7969C549.893 24.9688 549.826 23.276 549.758 21.7188C549.758 20.0938 549.758 18.7057 549.758 17.5547C549.826 16.3359 549.961 15.5911 550.164 15.3203C550.299 15.0495 550.74 14.9818 551.484 15.1172C552.297 15.2526 553.143 15.5234 554.023 15.9297C554.971 16.2682 555.852 16.7083 556.664 17.25C557.477 17.724 558.018 18.1979 558.289 18.6719C558.424 19.0781 558.594 19.5521 558.797 20.0938C559 20.5677 559.169 21.3802 559.305 22.5312C560.456 21.8542 561.708 21.2448 563.062 20.7031C564.417 20.0938 565.737 19.6536 567.023 19.3828C568.378 19.0443 569.664 18.9427 570.883 19.0781C572.102 19.1458 573.185 19.4844 574.133 20.0938C574.742 20.5677 575.352 21.3802 575.961 22.5312C576.638 23.6823 577.214 25.0365 577.688 26.5938C578.229 28.151 578.635 29.8099 578.906 31.5703C579.245 33.263 579.414 34.888 579.414 36.4453ZM614.961 29.0312C615.029 29.776 614.893 30.9271 614.555 32.4844C614.284 34.0417 613.844 35.599 613.234 37.1562C612.693 38.7135 611.948 40.0677 611 41.2188C610.12 42.3698 609.104 42.9453 607.953 42.9453C607.141 42.9453 606.464 42.3021 605.922 41.0156C605.448 39.7292 605.076 38.2396 604.805 36.5469C604.602 34.7865 604.432 33.0599 604.297 31.3672C604.161 29.6745 604.026 28.4896 603.891 27.8125C603.688 27.474 603.281 27.1693 602.672 26.8984C602.13 26.5599 601.589 26.3906 601.047 26.3906C600.505 26.3906 599.896 26.8307 599.219 27.7109C598.542 28.5911 597.865 29.6068 597.188 30.7578C596.578 31.9089 596.036 33.0599 595.562 34.2109C595.156 35.362 594.987 36.2083 595.055 36.75C595.055 37.1562 595.495 37.8672 596.375 38.8828C597.255 39.8984 598.339 41.1172 599.625 42.5391C600.979 43.8932 602.401 45.3828 603.891 47.0078C605.448 48.5651 606.87 50.1562 608.156 51.7812C609.443 53.3385 610.526 54.8281 611.406 56.25C612.354 57.6719 612.862 58.8906 612.93 59.9062C612.997 61.125 612.659 62.6823 611.914 64.5781C611.237 66.474 610.357 68.3021 609.273 70.0625C608.19 71.8229 607.039 73.3464 605.82 74.6328C604.602 75.9193 603.518 76.5964 602.57 76.6641C601.622 76.7318 600.234 76.224 598.406 75.1406C596.646 73.9896 594.852 72.6693 593.023 71.1797C591.263 69.6224 589.672 68.099 588.25 66.6094C586.896 65.1198 586.117 64.0365 585.914 63.3594C585.711 62.75 585.576 61.9375 585.508 60.9219C585.508 59.9062 585.542 58.8906 585.609 57.875C585.745 56.8594 585.948 56.013 586.219 55.3359C586.49 54.5911 586.828 54.2188 587.234 54.2188C587.641 54.2188 588.453 54.9297 589.672 56.3516C590.891 57.7057 592.211 59.263 593.633 61.0234C595.055 62.7161 596.443 64.2734 597.797 65.6953C599.151 67.0495 600.133 67.7266 600.742 67.7266C601.081 67.7266 601.453 67.4896 601.859 67.0156C602.266 66.474 602.638 65.8646 602.977 65.1875C603.315 64.5104 603.586 63.8333 603.789 63.1562C604.06 62.4115 604.195 61.8359 604.195 61.4297C604.128 60.8203 603.586 59.9401 602.57 58.7891C601.555 57.638 600.268 56.3516 598.711 54.9297C597.154 53.5078 595.461 52.0182 593.633 50.4609C591.805 48.8359 590.112 47.3125 588.555 45.8906C586.997 44.4688 585.711 43.1823 584.695 42.0312C583.68 40.8802 583.138 40 583.07 39.3906C583.003 38.7812 583.206 37.8333 583.68 36.5469C584.154 35.1927 584.763 33.737 585.508 32.1797C586.253 30.5547 587.099 28.8958 588.047 27.2031C589.062 25.5104 590.078 23.9531 591.094 22.5312C592.109 21.1094 593.091 19.9583 594.039 19.0781C595.055 18.1302 595.935 17.6562 596.68 17.6562C598.169 17.6562 599.93 18.0625 601.961 18.875C604.06 19.6875 606.057 20.7031 607.953 21.9219C609.849 23.0729 611.474 24.2917 612.828 25.5781C614.182 26.8646 614.893 28.0156 614.961 29.0312ZM658.328 12.2734C658.193 12.0703 657.956 11.8672 657.617 11.6641C657.346 11.4609 657.008 11.2917 656.602 11.1562C656.195 11.0208 655.789 10.987 655.383 11.0547C655.044 11.0547 654.773 11.1901 654.57 11.4609C654.367 11.7995 653.995 13.0859 653.453 15.3203C652.979 17.487 652.471 20.1953 651.93 23.4453C651.388 26.6953 650.914 30.3177 650.508 34.3125C650.102 38.3073 649.898 42.2682 649.898 46.1953C649.898 49.0391 650 52.0182 650.203 55.1328C650.406 58.1797 650.643 60.9896 650.914 63.5625C651.253 66.1354 651.625 68.2682 652.031 69.9609C652.505 71.5859 652.979 72.3984 653.453 72.3984C653.927 72.4661 654.57 71.9583 655.383 70.875C656.195 69.7917 656.974 68.5729 657.719 67.2188C658.464 65.7969 659.141 64.4427 659.75 63.1562C660.427 61.8021 660.867 60.888 661.07 60.4141C661.341 59.6693 661.714 58.8568 662.188 57.9766C662.661 57.0286 663.135 56.1823 663.609 55.4375C664.083 54.625 664.557 53.9818 665.031 53.5078C665.505 52.9661 665.911 52.6953 666.25 52.6953C666.656 52.6953 666.995 53.1016 667.266 53.9141C667.604 54.7266 667.841 55.7083 667.977 56.8594C668.18 57.9427 668.315 59.0938 668.383 60.3125C668.451 61.4635 668.484 62.4115 668.484 63.1562C668.484 64.5104 668.214 66.2031 667.672 68.2344C667.198 70.2656 666.555 72.2292 665.742 74.125C664.997 76.0208 664.151 77.6458 663.203 79C662.323 80.3542 661.477 80.9974 660.664 80.9297C659.852 80.862 658.531 80.388 656.703 79.5078C654.943 78.6276 653.115 77.612 651.219 76.4609C649.323 75.3099 647.596 74.1589 646.039 73.0078C644.482 71.8568 643.568 70.9427 643.297 70.2656C642.958 69.6562 642.451 68.2005 641.773 65.8984C641.164 63.5286 640.521 60.6849 639.844 57.3672C639.167 54.0495 638.557 50.3932 638.016 46.3984C637.542 42.4036 637.305 38.375 637.305 34.3125C637.305 30.25 637.339 26.2552 637.406 22.3281C637.474 18.3333 637.609 14.7786 637.812 11.6641C638.083 8.54948 638.49 6.04427 639.031 4.14844C639.573 2.1849 640.318 1.13542 641.266 1C643.161 0.796875 645.227 0.932292 647.461 1.40625C649.695 1.8125 651.93 2.45573 654.164 3.33594C656.398 4.21615 658.531 5.23177 660.562 6.38281C662.661 7.46615 664.523 8.61719 666.148 9.83594C667.773 10.987 669.06 12.1042 670.008 13.1875C671.023 14.2708 671.565 15.1849 671.633 15.9297C671.701 17.0807 671.565 18.3672 671.227 19.7891C670.888 21.2109 670.482 22.599 670.008 23.9531C669.534 25.2396 669.026 26.4245 668.484 27.5078C668.01 28.5234 667.638 29.2344 667.367 29.6406C667.029 30.1146 666.622 30.6224 666.148 31.1641C665.674 31.7057 665.167 32.1797 664.625 32.5859C664.151 32.9922 663.643 33.2969 663.102 33.5C662.628 33.6354 662.188 33.5339 661.781 33.1953C661.51 32.9922 661.24 32.349 660.969 31.2656C660.766 30.1823 660.529 28.8958 660.258 27.4062C660.055 25.9167 659.852 24.3255 659.648 22.6328C659.445 20.8724 659.242 19.2474 659.039 17.7578C658.904 16.2682 658.768 15.0156 658.633 14C658.497 12.9844 658.396 12.4089 658.328 12.2734ZM696.922 23.4453C697.396 23.8516 697.836 24.6302 698.242 25.7812C698.716 26.9323 699.122 28.3203 699.461 29.9453C699.799 31.5703 700.104 33.3307 700.375 35.2266C700.646 37.1224 700.883 38.9844 701.086 40.8125C701.289 42.6406 701.424 44.3672 701.492 45.9922C701.628 47.5495 701.729 48.8359 701.797 49.8516C701.865 51.0703 701.898 52.3568 701.898 53.7109C701.966 54.9974 701.966 56.25 701.898 57.4688C701.898 58.6198 701.831 59.6693 701.695 60.6172C701.628 61.5651 701.492 62.276 701.289 62.75C700.883 63.7656 700.172 64.4766 699.156 64.8828C698.208 65.2214 697.125 65.4583 695.906 65.5938C695.297 65.6615 694.247 65.6953 692.758 65.6953C691.336 65.6276 689.779 65.5599 688.086 65.4922C686.461 65.3568 684.904 65.2214 683.414 65.0859C681.924 64.9505 680.807 64.8151 680.062 64.6797C678.573 64.3411 677.49 63.901 676.812 63.3594C676.203 62.8177 675.594 62.0391 674.984 61.0234C674.781 60.6172 674.612 59.6016 674.477 57.9766C674.341 56.2839 674.24 54.2865 674.172 51.9844C674.172 49.6146 674.206 47.0755 674.273 44.3672C674.341 41.6589 674.443 39.0859 674.578 36.6484C674.781 34.2109 674.984 32.0781 675.188 30.25C675.458 28.4219 675.797 27.2031 676.203 26.5938C676.88 25.6458 678.031 24.7656 679.656 23.9531C681.349 23.1406 682.872 22.4974 684.227 22.0234C684.904 21.8203 685.784 21.6849 686.867 21.6172C688.018 21.4818 689.203 21.4818 690.422 21.6172C691.708 21.6849 692.927 21.888 694.078 22.2266C695.229 22.4974 696.177 22.9036 696.922 23.4453ZM691.234 54.9297C691.37 54.6589 691.505 53.8464 691.641 52.4922C691.844 51.0703 691.979 49.3776 692.047 47.4141C692.182 45.4505 692.25 43.3516 692.25 41.1172C692.318 38.8828 692.352 36.8177 692.352 34.9219C692.352 33.026 692.284 31.4349 692.148 30.1484C692.013 28.7943 691.844 28.0156 691.641 27.8125C691.302 27.5417 690.794 27.4401 690.117 27.5078C689.508 27.5078 688.865 27.6094 688.188 27.8125C687.51 27.9479 686.901 28.151 686.359 28.4219C685.818 28.625 685.445 28.8281 685.242 29.0312C684.362 29.776 683.888 30.9948 683.82 32.6875C683.82 33.1615 683.753 34.5156 683.617 36.75C683.549 38.9167 683.516 41.2865 683.516 43.8594C683.516 46.3646 683.549 48.7005 683.617 50.8672C683.753 53.0339 683.99 54.3542 684.328 54.8281C684.667 55.3021 685.141 55.6745 685.75 55.9453C686.427 56.1484 687.104 56.25 687.781 56.25C688.526 56.25 689.203 56.1484 689.812 55.9453C690.49 55.6745 690.964 55.3359 691.234 54.9297ZM748.414 18.875C749.701 19.9583 750.648 22.125 751.258 25.375C751.867 28.5573 752.104 32.112 751.969 36.0391C751.901 37.2578 751.732 38.9505 751.461 41.1172C751.19 43.2161 750.852 45.5521 750.445 48.125C750.107 50.6302 749.701 53.2031 749.227 55.8438C748.82 58.4844 748.414 60.9219 748.008 63.1562C747.602 65.3906 747.229 67.2865 746.891 68.8438C746.62 70.3333 746.451 71.2135 746.383 71.4844C746.247 71.9583 745.875 72.4323 745.266 72.9062C744.656 73.3802 744.013 73.7865 743.336 74.125C742.727 74.3958 742.117 74.599 741.508 74.7344C740.898 74.8021 740.526 74.6667 740.391 74.3281C740.323 74.125 740.323 73.0755 740.391 71.1797C740.458 69.2839 740.56 66.9479 740.695 64.1719C740.831 61.3281 740.966 58.3151 741.102 55.1328C741.305 51.8828 741.474 48.8359 741.609 45.9922C741.745 43.1484 741.88 40.7448 742.016 38.7812C742.151 36.75 742.219 35.5312 742.219 35.125C742.286 33.026 742.117 31.1979 741.711 29.6406C741.305 28.0156 740.628 27.2031 739.68 27.2031C739.341 27.2031 738.935 27.3724 738.461 27.7109C737.987 27.9818 737.513 28.3203 737.039 28.7266C736.633 29.1328 736.227 29.5729 735.82 30.0469C735.482 30.5208 735.312 30.9609 735.312 31.3672C735.245 32.5859 735.143 34.3802 735.008 36.75C734.94 39.1198 734.839 41.7266 734.703 44.5703C734.635 47.4141 734.534 50.3255 734.398 53.3047C734.331 56.2839 734.229 59.026 734.094 61.5312C734.026 64.0365 733.958 66.1354 733.891 67.8281C733.823 69.4531 733.755 70.3672 733.688 70.5703C733.552 70.8411 733.112 71.0443 732.367 71.1797C731.69 71.2474 730.911 71.2474 730.031 71.1797C729.151 71.112 728.339 70.9427 727.594 70.6719C726.917 70.401 726.51 70.0286 726.375 69.5547C726.24 69.2161 726.138 68.2005 726.07 66.5078C726.003 64.7474 725.901 62.6484 725.766 60.2109C725.698 57.7734 725.63 55.1667 725.562 52.3906C725.495 49.5469 725.427 46.9062 725.359 44.4688C725.292 42.0312 725.224 39.9323 725.156 38.1719C725.156 36.4115 725.156 35.3281 725.156 34.9219C725.156 33.2969 725.021 32.0104 724.75 31.0625C724.479 30.0469 724.141 29.2682 723.734 28.7266C723.396 28.1172 722.99 27.7448 722.516 27.6094C722.042 27.4062 721.568 27.3047 721.094 27.3047C720.891 27.3047 720.586 27.474 720.18 27.8125C719.773 28.0833 719.367 28.5234 718.961 29.1328C718.555 29.6745 718.216 30.3177 717.945 31.0625C717.674 31.7396 717.573 32.4844 717.641 33.2969C717.641 33.6354 717.674 34.888 717.742 37.0547C717.81 39.2214 717.844 41.8281 717.844 44.875C717.911 47.9219 717.979 51.2057 718.047 54.7266C718.115 58.2474 718.148 61.5312 718.148 64.5781C718.216 67.5573 718.25 70.0964 718.25 72.1953C718.25 74.2266 718.25 75.3099 718.25 75.4453C718.115 75.7839 717.742 75.987 717.133 76.0547C716.523 76.0547 715.846 75.9193 715.102 75.6484C714.357 75.3776 713.646 75.0052 712.969 74.5312C712.292 73.9896 711.818 73.3464 711.547 72.6016C711.411 72.0599 711.208 70.875 710.938 69.0469C710.667 67.2188 710.362 65.0521 710.023 62.5469C709.685 59.974 709.346 57.2318 709.008 54.3203C708.669 51.3411 708.331 48.4974 707.992 45.7891C707.654 43.013 707.349 40.5078 707.078 38.2734C706.875 36.0391 706.706 34.3464 706.57 33.1953C706.367 31.5703 706.13 29.8099 705.859 27.9141C705.656 25.9505 705.453 24.0885 705.25 22.3281C705.115 20.5 705.013 18.9427 704.945 17.6562C704.878 16.3021 704.945 15.4557 705.148 15.1172C705.284 14.8464 705.758 14.7448 706.57 14.8125C707.451 14.8802 708.365 15.0833 709.312 15.4219C710.328 15.6927 711.276 16.099 712.156 16.6406C713.104 17.1146 713.714 17.6224 713.984 18.1641C714.188 18.5703 714.391 19.0781 714.594 19.6875C714.865 20.2292 715.135 21.1094 715.406 22.3281C716.557 21.4479 717.742 20.6354 718.961 19.8906C720.18 19.0781 721.398 18.4688 722.617 18.0625C723.836 17.5885 724.987 17.3516 726.07 17.3516C727.221 17.2839 728.305 17.5885 729.32 18.2656C730.201 18.9427 731.047 20.1276 731.859 21.8203C735.109 19.9922 738.224 18.7396 741.203 18.0625C744.25 17.3177 746.654 17.5885 748.414 18.875ZM765.172 49.6484C766.255 49.2422 767.474 48.8021 768.828 48.3281C770.25 47.7865 771.604 47.3125 772.891 46.9062C774.177 46.4323 775.328 46.026 776.344 45.6875C777.359 45.349 778.104 45.0781 778.578 44.875C778.51 44.1302 778.409 43.2839 778.273 42.3359C778.206 41.3203 778.104 40.3724 777.969 39.4922C777.833 38.5443 777.664 37.7318 777.461 37.0547C777.258 36.3776 777.055 35.9714 776.852 35.8359C776.31 35.6328 775.396 35.4635 774.109 35.3281C772.891 35.125 771.604 35.1589 770.25 35.4297C768.964 35.7005 767.779 36.2083 766.695 36.9531C765.612 37.6979 765.003 38.8828 764.867 40.5078C764.732 41.5911 764.698 42.9453 764.766 44.5703C764.833 46.1953 764.969 47.888 765.172 49.6484ZM787.211 51.2734C787.143 51.4089 786.331 51.6797 784.773 52.0859C783.216 52.4922 781.354 52.9323 779.188 53.4062C777.021 53.8125 774.719 54.2526 772.281 54.7266C769.844 55.1328 767.745 55.4714 765.984 55.7422C766.323 58.4505 766.729 60.888 767.203 63.0547C767.677 65.1536 768.083 66.474 768.422 67.0156C768.76 67.4896 769.201 67.9297 769.742 68.3359C770.216 68.6745 770.792 69.013 771.469 69.3516C772.214 69.6224 773.094 69.8255 774.109 69.9609C774.854 70.1641 775.565 69.8932 776.242 69.1484C776.784 68.4714 777.258 67.2865 777.664 65.5938C778.138 63.901 778.375 61.2266 778.375 57.5703C780.474 57.2318 782.099 57.0286 783.25 56.9609C784.469 56.8932 785.349 56.8932 785.891 56.9609C786.568 57.0286 786.974 57.1302 787.109 57.2656C787.177 57.4688 787.177 57.9766 787.109 58.7891C787.042 59.6016 786.872 60.6172 786.602 61.8359C786.398 62.987 786.128 64.2734 785.789 65.6953C785.518 67.0495 785.18 68.3698 784.773 69.6562C784.367 70.875 783.927 71.9922 783.453 73.0078C782.979 73.9557 782.471 74.6328 781.93 75.0391C780.305 76.2578 778.273 76.8672 775.836 76.8672C773.398 76.7995 770.995 76.4609 768.625 75.8516C766.255 75.1745 764.122 74.3958 762.227 73.5156C760.331 72.5677 759.146 71.7891 758.672 71.1797C758.333 70.7734 758.029 69.7578 757.758 68.1328C757.487 66.4401 757.25 64.4089 757.047 62.0391C756.911 59.6693 756.81 57.0625 756.742 54.2188C756.674 51.375 756.708 48.599 756.844 45.8906C757.047 43.1823 757.318 40.6771 757.656 38.375C758.062 36.0729 758.604 34.2109 759.281 32.7891C760.297 30.7578 761.956 29.099 764.258 27.8125C766.56 26.526 768.997 25.6458 771.57 25.1719C774.143 24.6979 776.581 24.6302 778.883 24.9688C781.253 25.3073 783.013 26.0521 784.164 27.2031C784.841 27.8802 785.451 29.2344 785.992 31.2656C786.534 33.2292 786.872 35.6328 787.008 38.4766C787.008 38.7474 787.042 39.526 787.109 40.8125C787.177 42.099 787.211 43.487 787.211 44.9766C787.279 46.3984 787.312 47.7526 787.312 49.0391C787.312 50.3255 787.279 51.0703 787.211 51.2734ZM855.867 51.8828C856.003 52.0859 855.969 52.763 855.766 53.9141C855.63 55.0651 855.393 56.3177 855.055 57.6719C854.784 59.026 854.479 60.3125 854.141 61.5312C853.87 62.6823 853.633 63.3594 853.43 63.5625H852.414C852.211 63.5625 852.008 63.5286 851.805 63.4609C852.143 66.7109 852.414 69.3177 852.617 71.2812C852.82 73.2448 852.922 74.3281 852.922 74.5312C852.922 75.0052 852.685 75.6823 852.211 76.5625C851.805 77.4427 851.331 78.2552 850.789 79C850.247 79.7448 849.672 80.3203 849.062 80.7266C848.521 81.2005 848.148 81.2344 847.945 80.8281C847.607 80.2188 846.896 78.3906 845.812 75.3438C844.729 72.2969 843.51 68.1328 842.156 62.8516C840.802 62.7161 839.38 62.5807 837.891 62.4453C836.469 62.3099 835.013 62.1745 833.523 62.0391C832.034 61.9036 830.544 61.7344 829.055 61.5312C827.633 61.2604 826.245 61.0234 824.891 60.8203C824.214 63.7995 823.536 66.6094 822.859 69.25C822.25 71.8906 821.641 74.1927 821.031 76.1562C820.49 78.1198 820.016 79.6771 819.609 80.8281C819.203 81.9792 818.898 82.5547 818.695 82.5547C818.154 82.5547 817.612 82.2161 817.07 81.5391C816.529 80.862 816.021 80.0495 815.547 79.1016C815.141 78.1536 814.802 77.1719 814.531 76.1562C814.26 75.1406 814.125 74.2943 814.125 73.6172C814.26 72.0599 814.43 70.4349 814.633 68.7422C814.904 67.0495 815.107 65.4922 815.242 64.0703C815.445 62.3776 815.648 60.7188 815.852 59.0938H815.445C815.174 58.9583 814.802 58.6536 814.328 58.1797C813.854 57.7057 813.38 57.2318 812.906 56.7578C812.432 56.2161 812.026 55.7083 811.688 55.2344C811.349 54.6927 811.18 54.2865 811.18 54.0156C811.18 53.8802 811.654 53.7448 812.602 53.6094C813.617 53.474 814.938 53.3385 816.562 53.2031C817.104 49.1406 817.68 44.9089 818.289 40.5078C818.898 36.1068 819.508 31.9766 820.117 28.1172C820.727 24.2578 821.302 20.9062 821.844 18.0625C822.453 15.151 822.961 13.1536 823.367 12.0703C824.044 10.2422 825.229 8.61719 826.922 7.19531C828.615 5.70573 830.375 4.48698 832.203 3.53906C834.099 2.52344 835.893 1.74479 837.586 1.20312C839.279 0.661458 840.531 0.390625 841.344 0.390625C841.682 0.390625 842.055 1.16927 842.461 2.72656C842.935 4.21615 843.409 6.2474 843.883 8.82031C844.424 11.3932 844.966 14.4062 845.508 17.8594C846.117 21.2448 846.693 24.8333 847.234 28.625C847.776 32.4167 848.284 36.3099 848.758 40.3047C849.299 44.2318 849.807 47.9896 850.281 51.5781C853.667 51.5781 855.529 51.6797 855.867 51.8828ZM826.82 52.4922C828.987 52.3568 831.154 52.2552 833.32 52.1875C835.487 52.1198 837.62 52.0182 839.719 51.8828C839.177 49.2422 838.568 46.2969 837.891 43.0469C837.349 40.2708 836.706 37.0208 835.961 33.2969C835.216 29.5729 834.471 25.4766 833.727 21.0078C832.914 25.0026 832.102 28.8958 831.289 32.6875C830.477 36.4115 829.732 39.763 829.055 42.7422C828.31 46.1953 827.565 49.4453 826.82 52.4922ZM868.359 78.3906C867.885 78.526 867.344 78.3568 866.734 77.8828C866.125 77.4089 865.516 76.8333 864.906 76.1562C864.365 75.4115 863.891 74.6328 863.484 73.8203C863.078 73.0078 862.807 72.3307 862.672 71.7891C862.198 65.8307 861.792 60.5156 861.453 55.8438C861.182 51.1042 860.945 46.9062 860.742 43.25C860.539 39.5938 860.37 36.4453 860.234 33.8047C860.167 31.0964 860.133 28.7943 860.133 26.8984C860.065 22.4974 860.133 19.4505 860.336 17.7578C860.539 16.5391 861.081 15.3203 861.961 14.1016C862.909 12.8828 863.891 11.8333 864.906 10.9531C865.99 10.0729 866.971 9.39583 867.852 8.92188C868.799 8.44792 869.409 8.3125 869.68 8.51562C869.951 8.71875 870.154 9.86979 870.289 11.9688C870.424 14 870.526 16.6745 870.594 19.9922C870.661 23.3099 870.661 27.0339 870.594 31.1641C870.594 35.2943 870.526 39.526 870.391 43.8594C870.323 48.1927 870.221 52.4245 870.086 56.5547C869.951 60.6849 869.781 64.375 869.578 67.625C869.375 70.8073 869.172 73.3802 868.969 75.3438C868.766 77.3073 868.562 78.3229 868.359 78.3906ZM888.57 35.3281C888.706 35.6667 888.773 36.75 888.773 38.5781C888.841 40.3385 888.841 42.5052 888.773 45.0781C888.773 47.5833 888.706 50.2917 888.57 53.2031C888.435 56.0469 888.266 58.7552 888.062 61.3281C887.927 63.8333 887.758 66 887.555 67.8281C887.352 69.5885 887.148 70.638 886.945 70.9766C886.336 71.9245 885.422 72.5339 884.203 72.8047C882.984 73.0078 882.104 73.0417 881.562 72.9062C881.292 72.9062 880.987 72.1276 880.648 70.5703C880.378 69.013 880.107 67.0495 879.836 64.6797C879.565 62.3099 879.328 59.737 879.125 56.9609C878.922 54.1849 878.753 51.5443 878.617 49.0391C878.482 46.4661 878.414 44.2318 878.414 42.3359C878.414 40.4401 878.482 39.2214 878.617 38.6797C878.82 37.7995 879.396 37.0208 880.344 36.3438C881.359 35.6667 882.409 35.1589 883.492 34.8203C884.643 34.4818 885.693 34.3464 886.641 34.4141C887.656 34.4141 888.299 34.7188 888.57 35.3281ZM889.078 18.875C889.349 19.4167 889.451 20.1615 889.383 21.1094C889.383 22.0573 889.281 23.0391 889.078 24.0547C888.875 25.0703 888.604 26.0521 888.266 27C887.927 27.9479 887.589 28.6927 887.25 29.2344C886.573 30.1823 885.557 30.7917 884.203 31.0625C882.917 31.2656 881.969 31.2995 881.359 31.1641C880.885 31.0964 880.411 30.7917 879.938 30.25C879.464 29.6406 879.057 28.9297 878.719 28.1172C878.38 27.237 878.143 26.2891 878.008 25.2734C877.872 24.2578 877.906 23.3099 878.109 22.4297C878.312 21.5495 878.956 20.7708 880.039 20.0938C881.122 19.349 882.273 18.8073 883.492 18.4688C884.711 18.0625 885.862 17.8932 886.945 17.9609C888.029 17.9609 888.74 18.2656 889.078 18.875ZM902.789 66.3047C901.841 62.8516 900.792 58.7891 899.641 54.1172C898.693 50.1224 897.542 45.2812 896.188 39.5938C894.901 33.8385 893.513 27.2708 892.023 19.8906C892.023 19.4167 892.328 18.8411 892.938 18.1641C893.479 17.4193 894.156 16.7422 894.969 16.1328C895.781 15.4557 896.628 14.9141 897.508 14.5078C898.388 14.0339 899.167 13.7969 899.844 13.7969C900.115 14.2031 900.589 15.9974 901.266 19.1797C901.536 20.5339 901.841 22.2604 902.18 24.3594C902.586 26.3906 903.026 28.9297 903.5 31.9766C903.974 35.0234 904.482 38.612 905.023 42.7422C905.633 46.8047 906.31 51.5104 907.055 56.8594C907.596 53.2031 908.104 49.75 908.578 46.5C909.12 43.25 909.594 40.3724 910 37.8672C910.474 34.9557 910.914 32.2474 911.32 29.7422C911.523 28.1849 911.76 26.5599 912.031 24.8672C912.302 23.1068 912.573 21.5156 912.844 20.0938C913.182 18.6719 913.521 17.487 913.859 16.5391C914.266 15.5234 914.672 15.0156 915.078 15.0156C915.484 15.0156 916.094 15.1172 916.906 15.3203C917.719 15.4557 918.531 15.6589 919.344 15.9297C920.224 16.2005 921.003 16.5391 921.68 16.9453C922.357 17.2839 922.695 17.6562 922.695 18.0625C922.695 18.2656 922.492 19.2812 922.086 21.1094C921.68 22.8698 921.138 25.138 920.461 27.9141C919.784 30.6901 919.005 33.8385 918.125 37.3594C917.245 40.8125 916.331 44.3333 915.383 47.9219C914.503 51.5104 913.589 55.0312 912.641 58.4844C911.693 61.9375 910.812 65.0182 910 67.7266C909.255 70.3672 908.612 72.5339 908.07 74.2266C907.529 75.8516 907.156 76.6641 906.953 76.6641C906.75 76.6641 906.174 75.75 905.227 73.9219C904.346 72.026 903.534 69.487 902.789 66.3047ZM931.633 49.6484C932.716 49.2422 933.935 48.8021 935.289 48.3281C936.711 47.7865 938.065 47.3125 939.352 46.9062C940.638 46.4323 941.789 46.026 942.805 45.6875C943.82 45.349 944.565 45.0781 945.039 44.875C944.971 44.1302 944.87 43.2839 944.734 42.3359C944.667 41.3203 944.565 40.3724 944.43 39.4922C944.294 38.5443 944.125 37.7318 943.922 37.0547C943.719 36.3776 943.516 35.9714 943.312 35.8359C942.771 35.6328 941.857 35.4635 940.57 35.3281C939.352 35.125 938.065 35.1589 936.711 35.4297C935.424 35.7005 934.24 36.2083 933.156 36.9531C932.073 37.6979 931.464 38.8828 931.328 40.5078C931.193 41.5911 931.159 42.9453 931.227 44.5703C931.294 46.1953 931.43 47.888 931.633 49.6484ZM953.672 51.2734C953.604 51.4089 952.792 51.6797 951.234 52.0859C949.677 52.4922 947.815 52.9323 945.648 53.4062C943.482 53.8125 941.18 54.2526 938.742 54.7266C936.305 55.1328 934.206 55.4714 932.445 55.7422C932.784 58.4505 933.19 60.888 933.664 63.0547C934.138 65.1536 934.544 66.474 934.883 67.0156C935.221 67.4896 935.661 67.9297 936.203 68.3359C936.677 68.6745 937.253 69.013 937.93 69.3516C938.674 69.6224 939.555 69.8255 940.57 69.9609C941.315 70.1641 942.026 69.8932 942.703 69.1484C943.245 68.4714 943.719 67.2865 944.125 65.5938C944.599 63.901 944.836 61.2266 944.836 57.5703C946.935 57.2318 948.56 57.0286 949.711 56.9609C950.93 56.8932 951.81 56.8932 952.352 56.9609C953.029 57.0286 953.435 57.1302 953.57 57.2656C953.638 57.4688 953.638 57.9766 953.57 58.7891C953.503 59.6016 953.333 60.6172 953.062 61.8359C952.859 62.987 952.589 64.2734 952.25 65.6953C951.979 67.0495 951.641 68.3698 951.234 69.6562C950.828 70.875 950.388 71.9922 949.914 73.0078C949.44 73.9557 948.932 74.6328 948.391 75.0391C946.766 76.2578 944.734 76.8672 942.297 76.8672C939.859 76.7995 937.456 76.4609 935.086 75.8516C932.716 75.1745 930.583 74.3958 928.688 73.5156C926.792 72.5677 925.607 71.7891 925.133 71.1797C924.794 70.7734 924.49 69.7578 924.219 68.1328C923.948 66.4401 923.711 64.4089 923.508 62.0391C923.372 59.6693 923.271 57.0625 923.203 54.2188C923.135 51.375 923.169 48.599 923.305 45.8906C923.508 43.1823 923.779 40.6771 924.117 38.375C924.523 36.0729 925.065 34.2109 925.742 32.7891C926.758 30.7578 928.417 29.099 930.719 27.8125C933.021 26.526 935.458 25.6458 938.031 25.1719C940.604 24.6979 943.042 24.6302 945.344 24.9688C947.714 25.3073 949.474 26.0521 950.625 27.2031C951.302 27.8802 951.911 29.2344 952.453 31.2656C952.995 33.2292 953.333 35.6328 953.469 38.4766C953.469 38.7474 953.503 39.526 953.57 40.8125C953.638 42.099 953.672 43.487 953.672 44.9766C953.74 46.3984 953.773 47.7526 953.773 49.0391C953.773 50.3255 953.74 51.0703 953.672 51.2734Z" fill="white"/>
</svg>
