<svg width="1041" height="617" viewBox="0 0 1041 617" fill="none" xmlns="http://www.w3.org/2000/svg">
<path fill-rule="evenodd" clip-rule="evenodd" d="M958.684 32C958.684 24.268 952.416 18 944.684 18H422.684C414.952 18 408.684 24.268 408.684 32V203C408.684 198.029 404.654 194 399.684 194C394.713 194 390.684 198.029 390.684 203V18V14C390.684 6.26801 396.952 0 404.684 0H408.684H958.684H962.684C970.416 0 976.684 6.26801 976.684 14V18V59H1026.68C1034.42 59 1040.68 65.268 1040.68 73V603C1040.68 610.732 1034.42 617 1026.68 617H459.684C451.952 617 445.684 610.732 445.684 603V558H408.684H404.684C396.952 558 390.684 551.732 390.684 544V540V366C390.684 370.971 394.713 375 399.684 375C404.654 375 408.684 370.971 408.684 366V526C408.684 533.732 414.952 540 422.684 540H944.684C952.416 540 958.684 533.732 958.684 526V32ZM976.684 528V76H1023.68V600H462.684V559H945.684C948.392 559 951.02 558.653 953.524 558H958.684H962.684C970.416 558 976.684 551.732 976.684 544V540V528ZM43.1641 229.911C43.8835 230.343 44.387 230.774 44.6748 231.206C44.8187 231.494 45.0345 232.717 45.3223 234.875C45.61 237.033 45.8978 239.695 46.1855 242.86C46.6172 246.026 47.0488 249.479 47.4805 253.22C47.9121 256.817 48.3438 260.198 48.7754 263.363C49.3509 266.529 49.8545 269.262 50.2861 271.564C50.8617 273.867 51.4372 275.233 52.0127 275.665C52.876 276.384 53.8112 276.6 54.8184 276.312C55.9694 275.881 57.0485 275.233 58.0557 274.37C59.2067 273.507 60.2858 272.5 61.293 271.349C62.3001 270.198 63.1634 269.118 63.8828 268.111C64.4583 267.248 65.2497 265.737 66.2568 263.579C67.4079 261.277 68.487 258.759 69.4941 256.025C70.5013 253.148 71.3646 250.198 72.084 247.177C72.8034 244.155 73.0911 241.422 72.9473 238.976C72.8034 237.393 71.6523 235.451 69.4941 233.148C67.4798 230.846 64.7461 228.472 61.293 226.026C57.8398 223.437 53.8831 220.991 49.4229 218.688C45.1064 216.243 40.5742 214.084 35.8262 212.214C31.0781 210.343 26.3301 208.977 21.582 208.113C16.834 207.106 12.4456 206.818 8.41699 207.25C6.40267 207.538 4.81999 209.768 3.66895 213.94C2.5179 217.969 1.65462 223.293 1.0791 229.911C0.647461 236.53 0.359701 244.083 0.21582 252.572C0.0719401 260.917 0 269.406 0 278.039C0 286.672 0.503581 295.233 1.51074 303.722C2.66178 312.211 3.95671 319.98 5.39551 327.03C6.83431 334.08 8.20117 340.123 9.49609 345.159C10.9349 350.051 12.014 353.145 12.7334 354.439C13.3089 355.878 15.2513 357.821 18.5605 360.267C21.8698 362.713 25.5387 365.159 29.5674 367.604C33.596 370.05 37.4808 372.209 41.2217 374.079C45.1064 375.95 47.9121 376.957 49.6387 377.101C51.3652 377.244 53.1637 375.878 55.0342 373C57.0485 370.122 58.847 366.669 60.4297 362.641C62.1562 358.612 63.5231 354.439 64.5303 350.123C65.6813 345.807 66.2568 342.21 66.2568 339.332C66.2568 337.749 66.1849 335.735 66.041 333.289C65.8971 330.699 65.6094 328.253 65.1777 325.951C64.89 323.505 64.3864 321.419 63.667 319.692C63.0915 317.966 62.3721 317.103 61.5088 317.103C60.7894 317.103 59.9261 317.678 58.9189 318.829C57.9118 319.836 56.9046 321.203 55.8975 322.93C54.8903 324.512 53.8831 326.311 52.876 328.325C51.8688 330.196 51.0775 331.922 50.502 333.505C50.0703 334.512 49.1351 336.454 47.6963 339.332C46.4014 342.066 44.9626 344.943 43.3799 347.965C41.7972 350.842 40.1426 353.432 38.416 355.734C36.6895 358.036 35.3226 359.116 34.3154 358.972C33.3083 358.972 32.3011 357.245 31.2939 353.792C30.4307 350.195 29.6393 345.663 28.9199 340.195C28.3444 334.728 27.8408 328.757 27.4092 322.282C26.9775 315.664 26.7617 309.333 26.7617 303.29C26.7617 294.945 27.1934 286.528 28.0566 278.039C28.9199 269.55 29.9271 261.853 31.0781 254.946C32.2292 248.04 33.3083 242.285 34.3154 237.681C35.4665 232.933 36.2578 230.199 36.6895 229.479C37.1211 228.904 37.6966 228.616 38.416 228.616C39.2793 228.472 40.1426 228.544 41.0059 228.832C41.8691 229.12 42.5885 229.479 43.1641 229.911ZM165.966 317.534C166.254 314.944 166.254 313.362 165.966 312.786C165.39 312.498 162.225 312.354 156.47 312.354C157.333 300.988 158.052 289.478 158.628 277.823C159.347 266.025 159.851 255.378 160.139 245.882C160.57 236.386 160.714 228.544 160.57 222.357C160.426 216.027 159.995 212.646 159.275 212.214C158.556 211.638 156.973 211.854 154.527 212.861C152.225 213.868 149.707 215.451 146.974 217.609C144.384 219.624 141.866 221.998 139.42 224.731C137.118 227.465 135.607 230.343 134.888 233.364C134.456 235.522 134.096 239.335 133.809 244.803C133.521 250.27 133.377 256.673 133.377 264.011V287.751C133.521 296.24 133.665 304.585 133.809 312.786C130.212 313.074 126.543 313.29 122.802 313.434C119.205 313.577 115.536 313.793 111.795 314.081C111.939 306.312 112.083 298.47 112.227 290.557C112.514 282.499 112.658 274.802 112.658 267.464V246.313C112.658 239.695 112.514 233.868 112.227 228.832C112.083 223.796 111.795 219.768 111.363 216.746C111.076 213.725 110.716 211.998 110.284 211.566C109.565 211.135 108.054 211.494 105.752 212.646C103.45 213.797 101.004 215.451 98.4141 217.609C95.8242 219.768 93.3783 222.285 91.0762 225.163C88.918 227.897 87.5511 230.774 86.9756 233.796C86.5439 235.954 86.3281 239.911 86.3281 245.666C86.3281 251.277 86.472 257.896 86.7598 265.521C87.0475 273.003 87.4072 281.132 87.8389 289.909C88.4144 298.542 88.9899 307.031 89.5654 315.376C84.2419 315.664 79.9255 316.023 76.6162 316.455C73.4508 316.887 71.8682 317.246 71.8682 317.534C71.8682 318.11 72.2279 318.973 72.9473 320.124C73.6667 321.131 74.5299 322.21 75.5371 323.361C76.5443 324.512 77.5514 325.591 78.5586 326.599C79.5658 327.462 80.3571 328.037 80.9326 328.325C81.7959 328.613 82.7311 328.829 83.7383 328.973C84.8893 329.117 85.9684 329.332 86.9756 329.62C88.1266 329.908 89.2777 330.124 90.4287 330.268C90.7165 334.008 91.0042 337.821 91.292 341.706C91.5798 345.015 91.8675 348.684 92.1553 352.713C92.443 356.598 92.7308 360.41 93.0186 364.151C93.1624 365.59 93.738 367.245 94.7451 369.115C95.8962 370.986 97.1191 372.784 98.4141 374.511C99.8529 376.237 101.364 377.676 102.946 378.827C104.529 379.978 105.896 380.482 107.047 380.338C107.479 380.194 107.838 378.899 108.126 376.453C108.558 374.151 108.917 370.914 109.205 366.741C109.637 362.569 109.996 357.677 110.284 352.065C110.572 346.454 110.86 340.339 111.147 333.721C112.299 334.008 113.521 334.224 114.816 334.368C116.111 334.368 117.406 334.512 118.701 334.8L126.471 335.663C129.061 335.807 131.722 336.023 134.456 336.311C134.456 339.476 134.528 342.641 134.672 345.807C134.816 348.54 134.888 351.562 134.888 354.871C135.032 358.036 135.175 361.058 135.319 363.936C135.463 365.374 136.039 367.101 137.046 369.115C138.053 370.986 139.204 372.784 140.499 374.511C141.794 376.237 143.089 377.676 144.384 378.827C145.823 380.122 147.118 380.626 148.269 380.338C148.7 380.338 149.132 379.187 149.563 376.885C149.995 374.727 150.499 371.777 151.074 368.036C151.65 364.295 152.225 359.835 152.801 354.655C153.376 349.332 153.88 343.648 154.312 337.605C155.175 337.749 155.966 337.821 156.686 337.821C157.405 337.821 158.124 337.893 158.844 338.037H161.218C161.506 337.605 161.937 336.167 162.513 333.721C163.232 331.131 163.88 328.397 164.455 325.52C165.174 322.642 165.678 319.98 165.966 317.534ZM268.696 319.692C269.128 317.246 269.2 315.808 268.912 315.376C268.193 314.944 264.236 314.729 257.042 314.729C256.035 307.103 254.956 299.118 253.805 290.772C252.798 282.284 251.718 274.01 250.567 265.953C249.416 257.896 248.193 250.27 246.898 243.076C245.747 235.738 244.596 229.336 243.445 223.868C242.438 218.401 241.431 214.084 240.424 210.919C239.561 207.61 238.769 205.955 238.05 205.955C236.323 205.955 233.661 206.531 230.064 207.682C226.467 208.833 222.655 210.487 218.626 212.646C214.741 214.66 211 217.25 207.403 220.415C203.806 223.437 201.288 226.89 199.85 230.774C198.986 233.076 197.907 237.321 196.612 243.508C195.461 249.551 194.238 256.673 192.943 264.874C191.648 273.075 190.354 281.852 189.059 291.204C187.764 300.556 186.541 309.549 185.39 318.182C181.937 318.469 179.131 318.757 176.973 319.045C174.958 319.333 173.951 319.62 173.951 319.908C173.951 320.484 174.311 321.347 175.03 322.498C175.75 323.505 176.613 324.584 177.62 325.735L180.642 328.757C181.649 329.764 182.44 330.411 183.016 330.699H183.879C183.447 334.152 183.016 337.677 182.584 341.274C182.296 344.296 181.865 347.605 181.289 351.202C180.857 354.799 180.498 358.252 180.21 361.562C180.21 363 180.498 364.799 181.073 366.957C181.649 369.115 182.368 371.202 183.231 373.216C184.239 375.23 185.318 376.957 186.469 378.396C187.62 379.834 188.771 380.554 189.922 380.554C190.354 380.554 191.001 379.331 191.864 376.885C192.728 374.439 193.735 371.13 194.886 366.957C196.181 362.785 197.476 357.893 198.771 352.281C200.209 346.67 201.648 340.699 203.087 334.368C205.965 334.8 208.914 335.303 211.936 335.879C215.101 336.311 218.266 336.67 221.432 336.958C224.597 337.246 227.69 337.534 230.712 337.821C233.877 338.109 236.899 338.397 239.776 338.685C242.654 349.907 245.244 358.756 247.546 365.23C249.848 371.705 251.359 375.59 252.078 376.885C252.51 377.748 253.301 377.676 254.452 376.669C255.747 375.806 256.97 374.583 258.121 373C259.272 371.417 260.279 369.691 261.143 367.82C262.15 365.95 262.653 364.511 262.653 363.504C262.653 363.072 262.438 360.77 262.006 356.598C261.574 352.425 260.999 346.886 260.279 339.979C260.711 340.123 261.143 340.195 261.574 340.195H263.732C264.164 339.764 264.668 338.325 265.243 335.879C265.963 333.289 266.61 330.555 267.186 327.678C267.905 324.8 268.409 322.138 268.696 319.692ZM221 316.023C216.396 316.167 211.792 316.383 207.188 316.671C208.77 310.196 210.353 303.29 211.936 295.952C213.374 289.621 214.957 282.499 216.684 274.586C218.41 266.529 220.137 258.256 221.863 249.767C223.446 259.263 225.029 267.967 226.611 275.881C228.194 283.794 229.561 290.701 230.712 296.6C232.151 303.506 233.446 309.765 234.597 315.376C230.136 315.664 225.604 315.88 221 316.023ZM345.408 235.471C345.376 235.632 345.345 235.793 345.312 235.954C344.881 238.688 344.377 240.486 343.802 241.35C343.37 242.069 340.708 242.357 335.816 242.213C331.068 241.925 324.234 241.206 315.313 240.055C315.313 245.666 315.242 252.86 315.098 261.637C314.954 270.413 314.666 279.838 314.234 289.909C313.947 299.837 313.587 309.837 313.155 319.908C312.868 329.98 312.508 339.116 312.076 347.317C311.645 355.519 311.213 362.209 310.781 367.389C310.35 372.568 309.99 375.302 309.702 375.59C309.127 376.021 308.119 375.806 306.681 374.942C305.386 374.223 304.019 373.144 302.58 371.705C301.141 370.266 299.774 368.827 298.479 367.389C297.328 365.806 296.537 364.439 296.105 363.288C295.962 362.713 295.674 359.907 295.242 354.871C294.954 349.835 294.595 343.505 294.163 335.879C293.731 328.253 293.228 319.764 292.652 310.412C292.077 301.06 291.501 291.78 290.926 282.571C290.35 273.363 289.703 264.73 288.983 256.673C288.408 248.616 287.904 241.925 287.473 236.602C277.689 235.594 270.639 234.587 266.322 233.58C262.006 232.573 259.56 231.782 258.984 231.206C258.409 230.631 257.833 229.551 257.258 227.969C256.538 226.242 255.963 224.516 255.531 222.789C255.1 221.062 254.884 219.48 254.884 218.041C254.74 216.458 254.884 215.451 255.315 215.02C255.603 214.732 258.049 214.444 262.653 214.156C267.114 213.868 272.653 213.581 279.271 213.293C285.89 213.005 293.012 212.789 300.638 212.646C308.407 212.502 315.601 212.43 322.22 212.43C328.838 212.43 334.378 212.574 338.838 212.861C342.036 212.961 344.192 213.131 345.308 213.369C345.877 213.344 346.454 213.318 347.039 213.293C353.658 213.005 360.78 212.789 368.405 212.646C376.175 212.502 383.369 212.43 389.987 212.43C396.606 212.43 402.145 212.574 406.605 212.861C411.21 213.005 413.656 213.293 413.943 213.725C414.375 214.444 414.591 216.099 414.591 218.688C414.611 219.055 414.627 219.427 414.639 219.802C415.322 219.63 416.098 219.475 416.965 219.336C420.562 218.76 424.878 218.401 429.914 218.257C434.95 217.969 440.345 217.897 446.101 218.041C452 218.185 457.467 218.473 462.503 218.904C467.539 219.192 471.783 219.624 475.236 220.199C476.827 220.398 478.097 220.597 479.047 220.796C479.238 218.87 479.623 216.945 480.2 215.02C480.92 212.142 481.855 210.343 483.006 209.624C483.581 209.192 485.596 209.264 489.049 209.84C492.502 210.271 496.315 210.847 500.487 211.566C504.66 212.286 508.617 213.077 512.357 213.94C516.242 214.804 518.76 215.379 519.911 215.667C520.918 215.955 522.573 216.458 524.875 217.178C527.177 217.753 529.839 218.617 532.86 219.768C535.882 220.775 539.047 221.926 542.356 223.221C545.81 224.516 549.047 225.882 552.068 227.321C555.09 228.76 557.824 230.199 560.27 231.638C562.716 233.076 564.586 234.515 565.881 235.954C566.6 236.817 567.32 239.263 568.039 243.292C568.758 247.321 569.262 251.709 569.55 256.457C569.981 261.205 570.125 265.665 569.981 269.838C569.981 274.01 569.622 276.744 568.902 278.039C568.327 278.902 566.888 280.485 564.586 282.787C562.284 284.945 559.622 287.391 556.601 290.125C553.579 292.859 550.414 295.592 547.104 298.326C543.939 300.916 541.133 303.146 538.688 305.017C539.839 307.319 541.277 310.34 543.004 314.081C544.73 317.678 546.601 321.563 548.615 325.735C550.63 329.764 552.572 333.937 554.442 338.253C556.457 342.569 558.255 346.526 559.838 350.123C561.421 353.576 562.716 356.526 563.723 358.972C564.73 361.274 565.233 362.641 565.233 363.072C565.233 363.792 564.874 364.799 564.154 366.094C563.579 367.389 562.787 368.612 561.78 369.763C560.773 370.77 559.694 371.633 558.543 372.353C557.392 373.072 556.313 373.216 555.306 372.784C554.73 372.64 553.651 371.489 552.068 369.331C550.486 367.029 548.543 364.223 546.241 360.914C544.083 357.461 541.637 353.576 538.903 349.26C536.313 344.943 533.652 340.627 530.918 336.311C528.184 331.85 525.594 327.606 523.148 323.577C520.702 319.405 518.544 315.736 516.674 312.57C516.386 327.534 516.026 339.044 515.595 347.102C515.307 355.159 515.091 361.058 514.947 364.799C514.659 369.259 514.372 371.777 514.084 372.353C513.652 372.353 512.717 371.777 511.278 370.626C509.84 369.331 508.329 367.82 506.746 366.094C505.163 364.367 503.653 362.641 502.214 360.914C500.919 359.188 500.128 357.893 499.84 357.029C499.552 355.159 499.12 349.763 498.545 340.843C498.257 336.958 497.969 332.138 497.682 326.383C497.394 320.628 497.034 313.649 496.603 305.448C496.315 297.247 495.883 287.607 495.308 276.528C494.732 265.45 494.157 252.716 493.581 238.328C490.991 238.184 488.905 238.184 487.322 238.328C485.74 238.328 484.517 238.4 483.653 238.544C482.79 238.688 482.143 238.76 481.711 238.76C481.486 238.685 481.281 238.552 481.095 238.36C480.812 240.249 480.442 242.109 479.984 243.939C479.409 246.673 478.761 248.472 478.042 249.335C477.466 250.054 473.941 250.126 467.467 249.551C460.992 248.975 450.777 248.04 436.82 246.745V264.227C436.964 271.133 436.964 278.543 436.82 286.456C447.611 287.463 456.028 288.398 462.071 289.262C468.114 290.125 471.28 290.701 471.567 290.988C472.143 291.564 472.359 292.787 472.215 294.657C472.071 296.384 471.711 298.326 471.136 300.484C470.56 302.643 469.841 304.729 468.978 306.743C468.114 308.614 467.251 309.837 466.388 310.412C465.668 310.7 462.791 311.132 457.755 311.707C452.863 312.139 445.885 312.57 436.82 313.002C436.82 319.189 436.748 325.304 436.604 331.347C436.604 337.39 436.533 342.929 436.389 347.965C450.345 348.109 460.489 348.396 466.819 348.828C473.294 349.116 476.819 349.548 477.395 350.123C477.97 350.842 477.97 352.209 477.395 354.224C476.963 356.238 476.172 358.396 475.021 360.698C474.013 362.856 472.862 365.015 471.567 367.173C470.416 369.331 469.481 370.842 468.762 371.705C468.474 371.993 466.747 372.137 463.582 372.137C460.417 371.993 456.892 371.777 453.007 371.489C449.122 371.202 445.381 370.914 441.784 370.626C438.187 370.194 435.813 369.835 434.662 369.547C432.504 368.827 430.202 367.676 427.756 366.094C425.31 364.367 423.368 362.209 421.929 359.619C421.641 358.9 421.137 356.526 420.418 352.497C419.842 348.325 419.195 343.073 418.476 336.742C417.756 330.411 417.037 323.289 416.317 315.376C415.598 307.463 414.879 299.405 414.159 291.204C413.44 283.003 412.792 274.946 412.217 267.032C411.641 259.119 411.138 251.997 410.706 245.666C410.648 244.36 410.596 243.101 410.549 241.888C409.303 242.205 406.982 242.313 403.584 242.213C398.836 241.925 392.002 241.206 383.081 240.055C383.081 245.666 383.009 252.86 382.865 261.637C382.721 270.413 382.434 279.838 382.002 289.909C381.714 299.837 381.354 309.837 380.923 319.908C380.635 329.98 380.275 339.116 379.844 347.317C379.412 355.519 378.98 362.209 378.549 367.389C378.117 372.568 377.757 375.302 377.47 375.59C376.894 376.021 375.887 375.806 374.448 374.942C373.153 374.223 371.786 373.144 370.348 371.705C368.909 370.266 367.542 368.827 366.247 367.389C365.096 365.806 364.305 364.439 363.873 363.288C363.729 362.713 363.441 359.907 363.01 354.871C362.722 349.835 362.362 343.505 361.931 335.879C361.499 328.253 360.995 319.764 360.42 310.412C359.844 301.06 359.269 291.78 358.693 282.571C358.118 273.363 357.47 264.73 356.751 256.673C356.175 248.616 355.672 241.925 355.24 236.602C351.58 236.225 348.303 235.848 345.408 235.471ZM522.501 292.715C520.343 294.729 518.616 296.096 517.321 296.815L519.479 242.86C523.508 243.868 527.465 245.09 531.35 246.529C535.234 247.824 538.616 249.191 541.493 250.63C544.371 252.069 546.673 253.507 548.399 254.946C550.27 256.241 551.205 257.392 551.205 258.399C551.205 258.975 550.558 260.198 549.263 262.068C547.968 263.939 546.241 266.169 544.083 268.759C542.069 271.349 539.767 274.154 537.177 277.176C534.587 280.053 531.997 282.859 529.407 285.593C526.961 288.183 524.659 290.557 522.501 292.715ZM636.022 294.01C632.713 291.995 629.404 290.125 626.095 288.398C631.994 285.089 637.317 282.14 642.065 279.55C646.238 277.248 650.051 275.018 653.504 272.859C656.957 270.701 658.971 269.19 659.547 268.327C660.266 267.176 660.626 264.874 660.626 261.421C660.77 257.824 660.626 254.011 660.194 249.982C659.907 245.954 659.403 242.285 658.684 238.976C658.108 235.666 657.461 233.652 656.741 232.933C655.015 231.062 651.993 229.192 647.677 227.321C643.36 225.307 638.828 223.508 634.08 221.926C629.332 220.343 624.872 218.976 620.699 217.825C616.671 216.53 613.937 215.739 612.498 215.451C611.635 215.307 610.052 215.02 607.75 214.588C605.448 214.156 602.786 213.725 599.765 213.293C596.743 212.717 593.506 212.214 590.053 211.782C586.743 211.207 583.65 210.775 580.772 210.487C577.895 210.056 575.449 209.84 573.435 209.84C571.42 209.696 570.269 209.696 569.981 209.84C568.83 210.559 567.823 212.142 566.96 214.588C566.097 216.89 565.665 219.264 565.665 221.71C565.665 224.012 565.809 226.386 566.097 228.832C566.384 231.134 566.816 232.717 567.392 233.58C567.679 234.012 568.471 234.371 569.766 234.659C570.917 234.803 572.284 234.947 573.866 235.091H579.046H583.578C584.298 243.292 584.945 250.918 585.521 257.968C586.096 265.018 586.6 271.205 587.031 276.528C587.607 282.715 588.038 288.327 588.326 293.362C588.614 298.542 589.046 304.081 589.621 309.98C590.053 315.016 590.556 320.843 591.132 327.462C591.707 334.08 592.355 341.059 593.074 348.396C590.484 348.54 588.398 348.612 586.815 348.612H582.931C581.924 348.612 581.204 348.684 580.772 348.828C580.341 348.828 579.981 349.044 579.693 349.476C578.83 351.346 578.255 354.799 577.967 359.835C577.967 362.137 578.326 364.007 579.046 365.446C579.909 366.885 580.916 367.964 582.067 368.684C582.643 368.971 584.226 369.115 586.815 369.115C589.549 368.971 592.571 368.756 595.88 368.468C599.189 368.18 602.354 367.82 605.376 367.389C608.541 366.957 610.915 366.525 612.498 366.094C614.656 365.518 617.75 364.007 621.778 361.562C625.951 359.116 630.195 356.31 634.512 353.145C638.828 349.979 642.713 346.814 646.166 343.648C649.763 340.483 652.065 337.893 653.072 335.879C653.936 334.296 654.727 332.21 655.446 329.62C656.166 326.886 656.669 324.153 656.957 321.419C657.389 318.541 657.604 315.952 657.604 313.649C657.604 311.203 657.245 309.405 656.525 308.254C655.95 307.391 654.655 306.24 652.641 304.801C650.77 303.218 648.396 301.563 645.519 299.837C642.641 297.966 639.476 296.024 636.022 294.01ZM617.246 278.902C614.081 281.492 611.563 283.219 609.692 284.082L610.124 238.328C614.153 239.335 617.894 240.486 621.347 241.781C624.944 242.932 628.037 244.083 630.627 245.234C633.217 246.385 635.231 247.536 636.67 248.688C638.253 249.839 639.044 250.774 639.044 251.493C639.044 253.939 637.821 256.889 635.375 260.342C633.073 263.651 630.267 266.96 626.958 270.27C623.793 273.435 620.555 276.312 617.246 278.902ZM620.915 341.922C617.318 343.792 613.505 345.159 609.477 346.022L609.692 299.189C611.563 300.053 614.153 301.42 617.462 303.29C620.771 305.16 624.008 307.247 627.174 309.549C630.483 311.851 633.289 314.153 635.591 316.455C638.037 318.757 639.26 320.843 639.26 322.714C639.26 324.584 638.468 326.671 636.886 328.973C635.303 331.275 633.145 333.577 630.411 335.879C627.677 338.037 624.512 340.051 620.915 341.922ZM678.755 229.048C676.453 231.062 674.942 232.717 674.223 234.012C673.503 235.307 672.856 238.544 672.28 243.724C671.849 248.903 671.489 255.234 671.201 262.716C671.057 270.054 670.985 278.111 670.985 286.888C671.129 295.664 671.489 304.297 672.064 312.786C672.64 321.131 673.431 328.901 674.438 336.095C675.59 343.289 677.028 348.972 678.755 353.145C681.345 359.475 685.373 364.511 690.841 368.252C696.308 371.993 702.063 374.439 708.106 375.59C714.149 376.885 719.905 376.885 725.372 375.59C730.84 374.295 734.868 371.777 737.458 368.036C738.753 366.166 739.688 362.856 740.264 358.108C740.983 353.216 741.415 347.389 741.559 340.627C741.846 333.721 741.846 326.239 741.559 318.182C741.415 309.98 741.055 301.707 740.479 293.362C739.904 284.873 739.185 276.6 738.321 268.543C737.458 260.342 736.451 252.932 735.3 246.313C734.293 239.551 733.214 233.796 732.062 229.048C730.911 224.3 729.688 221.134 728.394 219.552C725.948 216.386 722.998 214.372 719.545 213.509C716.236 212.502 712.639 212.358 708.754 213.077C705.013 213.653 701.272 214.876 697.531 216.746C693.79 218.473 690.265 220.415 686.956 222.573C683.791 224.731 681.057 226.89 678.755 229.048ZM718.25 336.526C717.962 340.267 717.387 342.569 716.523 343.433C715.516 344.152 713.79 344.799 711.344 345.375C709.042 345.951 706.668 345.951 704.222 345.375C701.776 344.656 699.474 343.145 697.315 340.843C695.301 338.541 694.15 334.872 693.862 329.836C693.718 326.527 693.646 322.354 693.646 317.318C693.79 312.139 693.934 306.671 694.078 300.916C694.366 295.161 694.654 289.334 694.941 283.435C695.373 277.392 695.805 271.852 696.236 266.816C696.668 261.637 697.1 257.176 697.531 253.436C698.107 249.695 698.61 247.177 699.042 245.882C699.617 244.443 700.409 243.076 701.416 241.781C702.279 240.63 703.43 239.623 704.869 238.76C706.308 237.753 708.106 237.033 710.265 236.602C711.847 237.609 713.286 240.127 714.581 244.155C715.732 247.608 716.739 252.86 717.603 259.91C718.466 266.96 718.897 276.888 718.897 289.693V306.096C719.041 311.995 719.041 317.606 718.897 322.93C718.897 328.109 718.682 332.642 718.25 336.526ZM830.692 219.983C832.707 214.66 833.498 211.71 833.066 211.135C832.635 210.559 831.052 210.487 828.318 210.919C825.729 211.207 822.707 212.07 819.254 213.509C815.945 214.804 812.563 216.602 809.11 218.904C805.657 221.062 802.995 223.652 801.125 226.674C799.398 229.12 797.024 234.012 794.003 241.35C790.981 248.544 787.6 256.889 783.859 266.385C780.838 259.047 777.96 252.141 775.227 245.666C772.493 239.048 769.975 233.292 767.673 228.4C765.515 223.508 763.644 219.624 762.062 216.746C760.479 213.725 759.4 211.998 758.824 211.566C757.961 211.135 756.594 211.494 754.724 212.646C752.853 213.797 751.055 215.451 749.328 217.609C747.602 219.768 746.163 222.285 745.012 225.163C743.861 227.897 743.645 230.774 744.364 233.796C744.796 235.666 745.875 238.688 747.602 242.86C749.184 247.033 751.199 251.997 753.645 257.752C756.234 263.507 759.112 269.838 762.277 276.744C765.443 283.507 768.68 290.413 771.989 297.463C769.543 303.794 767.025 310.484 764.436 317.534C762.133 323.577 759.616 330.411 756.882 338.037C754.148 345.663 751.342 353.36 748.465 361.13C748.177 362.569 748.105 364.367 748.249 366.525C748.393 368.54 748.753 370.554 749.328 372.568C750.048 374.583 750.839 376.309 751.702 377.748C752.709 379.187 753.86 379.906 755.155 379.906C755.587 379.906 756.666 378.396 758.393 375.374C760.263 372.496 762.493 368.54 765.083 363.504C767.673 358.468 770.622 352.569 773.932 345.807C777.385 339.044 780.982 331.85 784.723 324.225C786.737 328.541 788.823 333.001 790.981 337.605C792.852 341.49 794.938 345.807 797.24 350.555C799.542 355.159 801.772 359.691 803.931 364.151C804.794 365.59 806.089 367.245 807.815 369.115C809.686 370.986 811.7 372.784 813.858 374.511C816.017 376.237 818.031 377.676 819.901 378.827C821.916 379.978 823.426 380.482 824.434 380.338C825.009 380.194 824.577 377.748 823.139 373C821.844 368.396 819.829 362.353 817.096 354.871C814.506 347.245 811.412 338.613 807.815 328.973C804.218 319.189 800.406 309.189 796.377 298.974C801.269 288.47 806.017 278.111 810.621 267.896C815.225 257.536 819.254 248.256 822.707 240.055C826.16 231.854 828.822 225.163 830.692 219.983Z" fill="#010101"/>
</svg>
